<svg xmlns="http://www.w3.org/2000/svg" xmlns:xlink="http://www.w3.org/1999/xlink" width="200" zoomAndPan="magnify" viewBox="0 0 150 74.249996" height="99" preserveAspectRatio="xMidYMid meet" version="1.0"><defs><clipPath id="cfd198b3b8"><path d="M 35 13 L 149.25 13 L 149.25 61 L 35 61 Z M 35 13 " clip-rule="nonzero"/></clipPath><clipPath id="e72933c11d"><path d="M 0.75 0.0625 L 66 0.0625 L 66 73.433594 L 0.75 73.433594 Z M 0.75 0.0625 " clip-rule="nonzero"/></clipPath><clipPath id="88a0e51e8d"><path d="M 32.761719 73.179688 L 34 73.179688 L 34 73.433594 L 32.761719 73.433594 Z M 32.761719 73.179688 " clip-rule="nonzero"/></clipPath><clipPath id="7664592029"><path d="M 0.75 18 L 51.238281 18 L 51.238281 73.433594 L 0.75 73.433594 Z M 0.75 18 " clip-rule="nonzero"/></clipPath><clipPath id="e4a619e7f4"><path d="M 35 13 L 149.25 13 L 149.25 61 L 35 61 Z M 35 13 " clip-rule="nonzero"/></clipPath><clipPath id="0a24c8aa51"><path d="M 0.75 0.0625 L 66 0.0625 L 66 73.433594 L 0.75 73.433594 Z M 0.75 0.0625 " clip-rule="nonzero"/></clipPath><clipPath id="e2f9663670"><path d="M 32.761719 73.179688 L 34 73.179688 L 34 73.433594 L 32.761719 73.433594 Z M 32.761719 73.179688 " clip-rule="nonzero"/></clipPath><clipPath id="d03951db25"><path d="M 0.75 18 L 51.238281 18 L 51.238281 73.433594 L 0.75 73.433594 Z M 0.75 18 " clip-rule="nonzero"/></clipPath></defs><g clip-path="url(#cfd198b3b8)"><path fill="#83c927" d="M 148.84375 60.421875 L 35.957031 60.421875 C 35.734375 60.421875 35.550781 60.242188 35.550781 60.015625 L 35.550781 13.480469 C 35.550781 13.257812 35.734375 13.074219 35.957031 13.074219 L 148.84375 13.074219 C 149.066406 13.074219 149.25 13.257812 149.25 13.480469 L 149.25 60.015625 C 149.25 60.242188 149.066406 60.421875 148.84375 60.421875 " fill-opacity="1" fill-rule="nonzero"/></g><path fill="#f5fad8" d="M 147.800781 59.0625 L 36.996094 59.0625 C 36.78125 59.0625 36.605469 58.886719 36.605469 58.671875 L 36.605469 14.828125 C 36.605469 14.609375 36.78125 14.4375 36.996094 14.4375 L 147.800781 14.4375 C 148.019531 14.4375 148.195312 14.609375 148.195312 14.828125 L 148.195312 58.671875 C 148.195312 58.886719 148.019531 59.0625 147.800781 59.0625 " fill-opacity="1" fill-rule="nonzero"/><path fill="#83c927" d="M 144.378906 56.792969 L 39.097656 56.792969 C 38.898438 56.792969 38.738281 56.628906 38.738281 56.429688 L 38.738281 17.066406 C 38.738281 16.867188 38.898438 16.707031 39.097656 16.707031 L 144.378906 16.707031 C 144.578125 16.707031 144.742188 16.867188 144.742188 17.066406 L 144.742188 56.429688 C 144.742188 56.628906 144.578125 56.792969 144.378906 56.792969 " fill-opacity="1" fill-rule="nonzero"/><path fill="#6bb42f" d="M 53.074219 60.421875 L 49.792969 60.421875 C 50.144531 59.976562 50.496094 59.523438 50.84375 59.0625 L 54.128906 59.0625 C 53.777344 59.523438 53.425781 59.976562 53.074219 60.421875 M 63.089844 14.4375 L 59.800781 14.4375 C 58.792969 13.832031 57.660156 13.375 56.394531 13.082031 C 56.386719 13.078125 56.375 13.078125 56.367188 13.074219 L 59.65625 13.074219 L 59.683594 13.082031 C 60.945312 13.375 62.082031 13.832031 63.089844 14.4375 " fill-opacity="1" fill-rule="nonzero"/><path fill="#bee6a6" d="M 54.128906 59.0625 L 50.84375 59.0625 C 51.40625 58.324219 51.96875 57.566406 52.523438 56.792969 L 55.808594 56.792969 C 55.25 57.566406 54.691406 58.324219 54.128906 59.0625 M 65.789062 16.707031 L 62.5 16.707031 C 61.734375 15.816406 60.832031 15.050781 59.800781 14.4375 L 63.089844 14.4375 C 64.121094 15.050781 65.019531 15.816406 65.789062 16.707031 " fill-opacity="1" fill-rule="nonzero"/><path fill="#6bb42f" d="M 55.808594 56.792969 L 52.523438 56.792969 C 56.445312 51.335938 60.179688 45.09375 63.125 38.949219 C 66.960938 30.714844 66.84375 21.738281 62.5 16.707031 L 65.789062 16.707031 C 70.132812 21.738281 70.25 30.714844 66.414062 38.949219 C 63.464844 45.09375 59.730469 51.339844 55.808594 56.792969 " fill-opacity="1" fill-rule="nonzero"/><g clip-path="url(#e72933c11d)"><path fill="#83c927" d="M 56.394531 13.082031 C 46.511719 10.785156 49.457031 0.0625 33.460938 0.0625 L 33.175781 0.0625 C 17.183594 0.0625 20.125 10.785156 10.242188 13.082031 C 0.355469 15.378906 -1.664062 27.84375 3.515625 38.949219 C 11.597656 55.824219 25.632812 73.433594 33.175781 73.433594 C 33.226562 73.433594 33.414062 73.433594 33.460938 73.433594 C 41.003906 73.433594 55.039062 55.824219 63.125 38.949219 C 68.304688 27.84375 66.28125 15.378906 56.394531 13.082031 " fill-opacity="1" fill-rule="nonzero"/></g><path fill="#95d333" d="M 62.730469 39.757812 C 62.730469 39.757812 62.730469 39.757812 62.734375 39.753906 C 62.730469 39.757812 62.730469 39.757812 62.730469 39.757812 M 62.742188 39.734375 C 62.746094 39.730469 62.746094 39.726562 62.75 39.722656 C 62.746094 39.726562 62.746094 39.730469 62.742188 39.734375 M 62.753906 39.710938 C 62.757812 39.703125 62.761719 39.695312 62.765625 39.6875 C 62.761719 39.695312 62.757812 39.703125 62.753906 39.710938 M 62.765625 39.683594 C 62.886719 39.4375 63.007812 39.191406 63.125 38.949219 C 63.007812 39.191406 62.886719 39.4375 62.765625 39.683594 M 65.886719 27.15625 C 65.886719 20.292969 62.78125 14.566406 56.394531 13.082031 C 46.511719 10.785156 49.457031 0.0625 33.460938 0.0625 L 33.175781 0.0625 L 33.460938 0.0625 C 49.457031 0.0625 46.511719 10.785156 56.394531 13.082031 C 62.78125 14.566406 65.886719 20.292969 65.886719 27.15625 M 2.382812 19.398438 C 3.882812 16.316406 6.421875 14.03125 10.039062 13.128906 C 8.238281 13.578125 6.707031 14.375 5.433594 15.4375 C 6.113281 15.585938 6.78125 15.746094 7.4375 15.914062 C 5.921875 16.429688 4.621094 17.210938 3.527344 18.199219 C 3.691406 17.71875 3.875 17.253906 4.082031 16.800781 C 3.433594 17.566406 2.878906 18.421875 2.421875 19.347656 C 2.410156 19.363281 2.394531 19.378906 2.382812 19.398438 M 10.042969 13.128906 C 10.046875 13.128906 10.050781 13.125 10.058594 13.125 C 10.050781 13.125 10.046875 13.128906 10.042969 13.128906 M 10.066406 13.125 C 10.066406 13.125 10.070312 13.121094 10.070312 13.121094 C 10.070312 13.121094 10.066406 13.125 10.066406 13.125 " fill-opacity="1" fill-rule="nonzero"/><g clip-path="url(#88a0e51e8d)"><path fill="#d6e4bc" d="M 33.460938 73.433594 C 33.414062 73.433594 33.226562 73.433594 33.175781 73.433594 C 33.113281 73.433594 33.050781 73.433594 32.988281 73.429688 C 33.050781 73.433594 33.113281 73.433594 33.175781 73.433594 C 33.226562 73.433594 33.414062 73.433594 33.460938 73.433594 C 33.464844 73.433594 33.46875 73.433594 33.46875 73.433594 C 33.46875 73.433594 33.464844 73.433594 33.460938 73.433594 M 33.472656 73.433594 C 33.476562 73.433594 33.480469 73.433594 33.480469 73.433594 C 33.480469 73.433594 33.476562 73.433594 33.472656 73.433594 M 33.484375 73.433594 C 33.488281 73.433594 33.488281 73.433594 33.492188 73.433594 C 33.488281 73.433594 33.488281 73.433594 33.484375 73.433594 M 33.496094 73.433594 C 33.5 73.433594 33.5 73.433594 33.503906 73.433594 C 33.5 73.433594 33.5 73.433594 33.496094 73.433594 M 33.507812 73.433594 C 33.507812 73.433594 33.511719 73.433594 33.515625 73.433594 C 33.511719 73.433594 33.507812 73.433594 33.507812 73.433594 M 33.519531 73.433594 C 33.519531 73.433594 33.523438 73.433594 33.527344 73.433594 C 33.523438 73.433594 33.519531 73.433594 33.519531 73.433594 M 33.53125 73.433594 C 33.53125 73.433594 33.535156 73.433594 33.535156 73.433594 C 33.535156 73.433594 33.53125 73.433594 33.53125 73.433594 M 33.539062 73.433594 C 33.542969 73.433594 33.546875 73.433594 33.550781 73.433594 C 33.546875 73.433594 33.542969 73.433594 33.539062 73.433594 M 33.550781 73.433594 C 33.554688 73.433594 33.558594 73.433594 33.558594 73.433594 C 33.558594 73.433594 33.554688 73.433594 33.550781 73.433594 M 33.5625 73.433594 C 33.566406 73.433594 33.566406 73.433594 33.570312 73.433594 C 33.566406 73.433594 33.566406 73.433594 33.5625 73.433594 M 33.574219 73.433594 C 33.574219 73.433594 33.578125 73.433594 33.578125 73.433594 C 33.578125 73.433594 33.574219 73.433594 33.574219 73.433594 M 33.582031 73.433594 C 33.585938 73.433594 33.589844 73.433594 33.59375 73.433594 C 33.589844 73.433594 33.585938 73.433594 33.582031 73.433594 M 33.597656 73.433594 C 33.597656 73.433594 33.601562 73.433594 33.601562 73.433594 C 33.601562 73.433594 33.597656 73.433594 33.597656 73.433594 M 33.609375 73.429688 C 33.609375 73.429688 33.613281 73.429688 33.613281 73.429688 C 33.613281 73.429688 33.609375 73.429688 33.609375 73.429688 M 33.617188 73.429688 C 33.621094 73.429688 33.621094 73.429688 33.625 73.429688 C 33.621094 73.429688 33.621094 73.429688 33.617188 73.429688 M 33.628906 73.429688 C 33.632812 73.429688 33.636719 73.429688 33.636719 73.429688 C 33.636719 73.429688 33.632812 73.429688 33.628906 73.429688 M 33.644531 73.429688 C 33.644531 73.429688 33.644531 73.429688 33.648438 73.429688 C 33.648438 73.429688 33.644531 73.429688 33.644531 73.429688 M 33.652344 73.429688 C 33.65625 73.429688 33.65625 73.429688 33.660156 73.429688 C 33.65625 73.429688 33.65625 73.429688 33.652344 73.429688 M 33.664062 73.429688 C 33.664062 73.429688 33.667969 73.429688 33.667969 73.429688 C 33.667969 73.429688 33.664062 73.429688 33.664062 73.429688 M 33.6875 73.429688 C 33.6875 73.429688 33.691406 73.429688 33.691406 73.429688 C 33.691406 73.429688 33.691406 73.429688 33.6875 73.429688 M 33.699219 73.429688 C 33.699219 73.429688 33.699219 73.429688 33.703125 73.429688 C 33.699219 73.429688 33.699219 73.429688 33.699219 73.429688 M 33.707031 73.425781 C 33.710938 73.425781 33.710938 73.425781 33.710938 73.425781 C 33.710938 73.425781 33.710938 73.425781 33.707031 73.425781 M 33.734375 73.425781 C 33.734375 73.425781 33.734375 73.425781 33.738281 73.425781 C 33.734375 73.425781 33.734375 73.425781 33.734375 73.425781 M 33.742188 73.425781 C 33.746094 73.425781 33.746094 73.425781 33.746094 73.425781 C 33.746094 73.425781 33.746094 73.425781 33.742188 73.425781 " fill-opacity="1" fill-rule="nonzero"/></g><g clip-path="url(#7664592029)"><path fill="#7aba2a" d="M 33.460938 73.433594 C 33.414062 73.433594 33.226562 73.433594 33.175781 73.433594 C 33.113281 73.433594 33.050781 73.433594 32.988281 73.429688 C 25.398438 73.140625 11.53125 55.683594 3.515625 38.949219 C 0.273438 32.003906 -0.136719 24.535156 2.421875 19.347656 C 2.765625 18.941406 3.132812 18.554688 3.527344 18.199219 C 1.820312 23.238281 2.457031 29.84375 5.34375 36.035156 C 13.429688 52.910156 27.460938 70.523438 35.007812 70.523438 C 35.054688 70.523438 35.242188 70.523438 35.289062 70.523438 C 38.0625 70.523438 41.710938 68.144531 45.613281 64.300781 C 45.621094 64.640625 45.621094 64.976562 45.621094 65.3125 C 47.46875 63.328125 49.347656 61.054688 51.199219 58.589844 C 44.894531 66.988281 38.277344 73.132812 33.789062 73.421875 C 33.789062 73.421875 33.785156 73.421875 33.78125 73.421875 C 33.769531 73.425781 33.757812 73.425781 33.746094 73.425781 C 33.746094 73.425781 33.746094 73.425781 33.742188 73.425781 C 33.742188 73.425781 33.738281 73.425781 33.738281 73.425781 C 33.734375 73.425781 33.734375 73.425781 33.734375 73.425781 C 33.726562 73.425781 33.71875 73.425781 33.710938 73.425781 C 33.710938 73.425781 33.710938 73.425781 33.707031 73.425781 C 33.707031 73.425781 33.703125 73.429688 33.703125 73.429688 C 33.699219 73.429688 33.699219 73.429688 33.699219 73.429688 C 33.695312 73.429688 33.695312 73.429688 33.691406 73.429688 C 33.691406 73.429688 33.6875 73.429688 33.6875 73.429688 C 33.683594 73.429688 33.679688 73.429688 33.675781 73.429688 C 33.671875 73.429688 33.671875 73.429688 33.667969 73.429688 C 33.667969 73.429688 33.664062 73.429688 33.664062 73.429688 C 33.660156 73.429688 33.660156 73.429688 33.660156 73.429688 C 33.65625 73.429688 33.65625 73.429688 33.652344 73.429688 C 33.652344 73.429688 33.648438 73.429688 33.648438 73.429688 C 33.644531 73.429688 33.644531 73.429688 33.644531 73.429688 C 33.640625 73.429688 33.640625 73.429688 33.636719 73.429688 C 33.636719 73.429688 33.632812 73.429688 33.628906 73.429688 C 33.628906 73.429688 33.625 73.429688 33.625 73.429688 C 33.621094 73.429688 33.621094 73.429688 33.617188 73.429688 C 33.617188 73.429688 33.617188 73.429688 33.613281 73.429688 C 33.613281 73.429688 33.609375 73.429688 33.609375 73.429688 C 33.605469 73.429688 33.605469 73.429688 33.601562 73.433594 C 33.601562 73.433594 33.597656 73.433594 33.597656 73.433594 C 33.59375 73.433594 33.59375 73.433594 33.59375 73.433594 C 33.589844 73.433594 33.585938 73.433594 33.582031 73.433594 C 33.582031 73.433594 33.582031 73.433594 33.578125 73.433594 C 33.578125 73.433594 33.574219 73.433594 33.574219 73.433594 C 33.570312 73.433594 33.570312 73.433594 33.570312 73.433594 C 33.566406 73.433594 33.566406 73.433594 33.5625 73.433594 C 33.5625 73.433594 33.558594 73.433594 33.558594 73.433594 C 33.558594 73.433594 33.554688 73.433594 33.550781 73.433594 C 33.546875 73.433594 33.542969 73.433594 33.539062 73.433594 C 33.539062 73.433594 33.539062 73.433594 33.535156 73.433594 C 33.535156 73.433594 33.53125 73.433594 33.53125 73.433594 C 33.527344 73.433594 33.527344 73.433594 33.527344 73.433594 C 33.523438 73.433594 33.519531 73.433594 33.519531 73.433594 C 33.515625 73.433594 33.515625 73.433594 33.515625 73.433594 C 33.511719 73.433594 33.507812 73.433594 33.507812 73.433594 C 33.507812 73.433594 33.503906 73.433594 33.503906 73.433594 C 33.5 73.433594 33.5 73.433594 33.496094 73.433594 C 33.492188 73.433594 33.492188 73.433594 33.492188 73.433594 C 33.488281 73.433594 33.488281 73.433594 33.484375 73.433594 C 33.484375 73.433594 33.484375 73.433594 33.480469 73.433594 C 33.480469 73.433594 33.476562 73.433594 33.472656 73.433594 C 33.472656 73.433594 33.472656 73.433594 33.46875 73.433594 C 33.46875 73.433594 33.464844 73.433594 33.460938 73.433594 " fill-opacity="1" fill-rule="nonzero"/></g><path fill="#89c42d" d="M 2.421875 19.347656 C 2.878906 18.421875 3.433594 17.566406 4.082031 16.800781 C 3.875 17.253906 3.691406 17.71875 3.527344 18.199219 C 3.132812 18.554688 2.765625 18.941406 2.421875 19.347656 " fill-opacity="1" fill-rule="nonzero"/><path fill="#6fa72c" d="M 52.496094 17.082031 C 44.28125 15.175781 46.726562 6.265625 33.4375 6.265625 L 33.199219 6.265625 C 19.910156 6.265625 22.355469 15.175781 14.140625 17.082031 C 5.929688 18.992188 4.25 29.351562 8.550781 38.574219 C 15.269531 52.597656 26.933594 67.230469 33.199219 67.230469 C 33.242188 67.230469 33.398438 67.230469 33.4375 67.230469 C 39.707031 67.230469 51.367188 52.597656 58.085938 38.574219 C 62.386719 29.351562 60.707031 18.992188 52.496094 17.082031 " fill-opacity="1" fill-rule="nonzero"/><path fill="#f5fad8" d="M 52.3125 17.375 C 44.222656 15.496094 46.632812 6.722656 33.539062 6.722656 L 33.304688 6.722656 C 20.214844 6.722656 22.621094 15.496094 14.53125 17.375 C 6.441406 19.257812 4.785156 29.460938 9.027344 38.546875 C 15.644531 52.359375 27.128906 66.777344 33.304688 66.777344 C 33.347656 66.777344 33.5 66.777344 33.539062 66.777344 C 39.714844 66.777344 51.203125 52.359375 57.820312 38.546875 C 62.058594 29.460938 60.402344 19.257812 52.3125 17.375 " fill-opacity="1" fill-rule="nonzero"/><path fill="#93c347" d="M 8.394531 21.84375 C 9.492188 19.953125 11.117188 18.492188 13.292969 17.710938 C 13.3125 17.714844 13.324219 17.722656 13.34375 17.726562 C 11.246094 18.488281 9.660156 19.875 8.570312 21.675781 C 8.511719 21.730469 8.453125 21.785156 8.394531 21.84375 " fill-opacity="1" fill-rule="nonzero"/><path fill="#f9fce3" d="M 8.570312 21.675781 C 9.660156 19.875 11.246094 18.488281 13.34375 17.726562 C 14.019531 17.972656 14.679688 18.230469 15.332031 18.496094 C 14.613281 18.898438 13.785156 19.226562 12.804688 19.457031 C 11.105469 19.851562 9.707031 20.628906 8.570312 21.675781 " fill-opacity="1" fill-rule="nonzero"/><path fill="#fbc740" d="M 41.574219 46.582031 L 25.0625 46.582031 C 24.933594 46.582031 24.832031 46.476562 24.832031 46.347656 L 24.832031 31.773438 C 24.832031 31.644531 24.933594 31.539062 25.0625 31.539062 L 41.574219 31.539062 C 41.703125 31.539062 41.808594 31.644531 41.808594 31.773438 L 41.808594 46.347656 C 41.808594 46.476562 41.703125 46.582031 41.574219 46.582031 " fill-opacity="1" fill-rule="nonzero"/><path fill="#83c927" d="M 29.09375 30.023438 L 29.09375 27.667969 C 29.09375 25.617188 30.46875 23.738281 32.476562 23.34375 C 35.175781 22.820312 37.542969 24.886719 37.542969 27.5 L 37.542969 30.023438 C 37.542969 30.246094 37.722656 30.425781 37.945312 30.425781 L 39.457031 30.425781 C 39.679688 30.425781 39.863281 30.246094 39.863281 30.023438 L 39.863281 27.789062 C 39.863281 24.367188 37.371094 21.304688 33.972656 20.972656 C 30.074219 20.589844 26.777344 23.667969 26.777344 27.5 L 26.777344 30.023438 C 26.777344 30.246094 26.957031 30.425781 27.179688 30.425781 L 28.691406 30.425781 C 28.914062 30.425781 29.09375 30.246094 29.09375 30.023438 " fill-opacity="1" fill-rule="nonzero"/><path fill="#f5fad8" d="M 35.148438 39.804688 C 35.148438 38.847656 34.375 38.074219 33.421875 38.074219 C 32.46875 38.074219 31.699219 38.847656 31.699219 39.804688 C 31.699219 40.375 31.992188 40.859375 32.417969 41.171875 L 32.417969 43.121094 C 32.417969 43.527344 32.75 43.859375 33.15625 43.859375 L 33.691406 43.859375 C 34.097656 43.859375 34.429688 43.527344 34.429688 43.121094 L 34.429688 41.171875 C 34.851562 40.859375 35.148438 40.375 35.148438 39.804688 " fill-opacity="1" fill-rule="nonzero"/><path fill="#fbfdf0" d="M 10.105469 13.113281 C 10.109375 13.113281 10.109375 13.113281 10.109375 13.113281 C 10.105469 13.113281 10.109375 13.113281 10.105469 13.113281 M 10.128906 13.109375 C 10.128906 13.109375 10.132812 13.109375 10.132812 13.105469 C 10.132812 13.109375 10.128906 13.109375 10.128906 13.109375 M 10.148438 13.105469 C 10.148438 13.101562 10.152344 13.101562 10.15625 13.101562 C 10.152344 13.101562 10.148438 13.101562 10.148438 13.105469 M 10.171875 13.097656 C 10.171875 13.097656 10.175781 13.097656 10.179688 13.097656 C 10.179688 13.097656 10.175781 13.097656 10.175781 13.097656 C 10.171875 13.097656 10.171875 13.097656 10.171875 13.097656 M 10.191406 13.09375 C 10.195312 13.09375 10.199219 13.09375 10.203125 13.089844 C 10.199219 13.09375 10.195312 13.09375 10.191406 13.09375 M 10.214844 13.085938 C 10.21875 13.085938 10.21875 13.085938 10.222656 13.085938 C 10.21875 13.085938 10.21875 13.085938 10.21875 13.085938 C 10.21875 13.085938 10.214844 13.085938 10.214844 13.085938 " fill-opacity="1" fill-rule="nonzero"/><path fill="#a1d841" d="M 45.613281 64.300781 C 45.585938 62.445312 45.457031 60.539062 45.226562 58.597656 C 49.882812 53.136719 54.636719 45.777344 58.085938 38.574219 C 62.386719 29.351562 60.707031 18.992188 52.496094 17.082031 C 44.28125 15.175781 46.726562 6.265625 33.4375 6.265625 L 33.199219 6.265625 C 19.910156 6.265625 22.355469 15.175781 14.140625 17.082031 C 13.652344 17.195312 13.1875 17.339844 12.742188 17.511719 C 11.050781 16.917969 9.289062 16.382812 7.4375 15.914062 C 7.820312 15.785156 8.210938 15.671875 8.617188 15.578125 C 18.503906 13.28125 15.558594 2.558594 31.554688 2.558594 L 31.839844 2.558594 C 47.835938 2.558594 44.890625 13.28125 54.773438 15.578125 C 64.660156 17.875 66.683594 30.34375 61.503906 41.441406 C 59.941406 44.699219 58.160156 47.980469 56.246094 51.160156 C 52.789062 56.273438 49.097656 60.871094 45.613281 64.300781 M 51.199219 58.589844 C 52.425781 56.957031 53.640625 55.238281 54.828125 53.460938 C 54.824219 53.464844 54.820312 53.46875 54.816406 53.472656 C 57.71875 49.125 60.445312 44.425781 62.730469 39.757812 C 59.511719 46.332031 55.425781 52.964844 51.199219 58.589844 M 62.734375 39.753906 C 62.738281 39.746094 62.738281 39.742188 62.742188 39.734375 C 62.738281 39.742188 62.734375 39.746094 62.734375 39.753906 M 62.75 39.722656 C 62.75 39.71875 62.753906 39.714844 62.753906 39.710938 C 62.753906 39.714844 62.75 39.71875 62.75 39.722656 M 62.765625 39.6875 C 62.765625 39.6875 62.765625 39.6875 62.765625 39.683594 C 62.765625 39.6875 62.765625 39.6875 62.765625 39.6875 M 10.039062 13.128906 C 10.042969 13.128906 10.042969 13.128906 10.042969 13.128906 C 10.042969 13.128906 10.042969 13.128906 10.039062 13.128906 M 10.058594 13.125 C 10.058594 13.125 10.0625 13.125 10.066406 13.125 C 10.0625 13.125 10.058594 13.125 10.058594 13.125 M 10.070312 13.121094 C 10.085938 13.121094 10.097656 13.117188 10.105469 13.113281 C 10.109375 13.113281 10.105469 13.113281 10.109375 13.113281 C 10.113281 13.113281 10.121094 13.109375 10.128906 13.109375 C 10.128906 13.109375 10.132812 13.109375 10.132812 13.105469 C 10.136719 13.105469 10.144531 13.105469 10.148438 13.105469 C 10.148438 13.101562 10.152344 13.101562 10.15625 13.101562 C 10.160156 13.101562 10.164062 13.097656 10.171875 13.097656 C 10.171875 13.097656 10.171875 13.097656 10.175781 13.097656 C 10.140625 13.105469 10.105469 13.113281 10.070312 13.121094 M 10.175781 13.097656 C 10.175781 13.097656 10.179688 13.097656 10.179688 13.097656 C 10.183594 13.09375 10.1875 13.09375 10.191406 13.09375 C 10.195312 13.09375 10.199219 13.09375 10.203125 13.089844 C 10.207031 13.089844 10.210938 13.089844 10.214844 13.085938 C 10.214844 13.085938 10.21875 13.085938 10.21875 13.085938 C 10.203125 13.089844 10.191406 13.09375 10.175781 13.097656 M 10.222656 13.085938 C 10.226562 13.085938 10.234375 13.082031 10.242188 13.082031 C 10.234375 13.082031 10.226562 13.085938 10.222656 13.085938 " fill-opacity="1" fill-rule="nonzero"/><path fill="#fafdf0" d="M 10.21875 13.085938 C 10.21875 13.085938 10.21875 13.085938 10.222656 13.085938 C 10.21875 13.085938 10.21875 13.085938 10.21875 13.085938 M 10.554688 13.003906 C 20.0625 10.554688 17.351562 0.0625 33.175781 0.0625 C 17.351562 0.0625 20.0625 10.554688 10.554688 13.003906 " fill-opacity="1" fill-rule="nonzero"/><path fill="#aedd5b" d="M 54.816406 53.472656 C 54.820312 53.46875 54.824219 53.464844 54.828125 53.460938 C 55.746094 52.078125 56.648438 50.664062 57.527344 49.226562 C 57.101562 49.878906 56.675781 50.523438 56.246094 51.160156 C 58.160156 47.980469 59.941406 44.699219 61.503906 41.441406 C 66.683594 30.34375 64.660156 17.875 54.773438 15.578125 C 44.890625 13.28125 47.835938 2.558594 31.839844 2.558594 L 31.554688 2.558594 C 15.558594 2.558594 18.503906 13.28125 8.617188 15.578125 C 8.210938 15.671875 7.820312 15.785156 7.4375 15.914062 C 6.78125 15.746094 6.113281 15.585938 5.433594 15.4375 C 6.707031 14.375 8.238281 13.578125 10.039062 13.128906 C 10.042969 13.128906 10.042969 13.128906 10.042969 13.128906 C 10.046875 13.128906 10.050781 13.125 10.058594 13.125 C 10.058594 13.125 10.0625 13.125 10.066406 13.125 C 10.066406 13.125 10.070312 13.121094 10.070312 13.121094 C 10.105469 13.113281 10.140625 13.105469 10.175781 13.097656 C 10.191406 13.09375 10.203125 13.089844 10.21875 13.085938 C 10.21875 13.085938 10.21875 13.085938 10.222656 13.085938 C 10.226562 13.085938 10.234375 13.082031 10.242188 13.082031 C 10.347656 13.058594 10.453125 13.03125 10.554688 13.003906 C 20.0625 10.554688 17.351562 0.0625 33.175781 0.0625 L 33.460938 0.0625 C 49.457031 0.0625 46.511719 10.785156 56.394531 13.082031 C 62.78125 14.566406 65.886719 20.292969 65.886719 27.15625 C 65.890625 30.914062 64.957031 35.019531 63.125 38.949219 C 63.007812 39.191406 62.886719 39.4375 62.765625 39.683594 C 62.765625 39.6875 62.765625 39.6875 62.765625 39.6875 C 62.761719 39.695312 62.757812 39.703125 62.753906 39.710938 C 62.753906 39.714844 62.75 39.71875 62.75 39.722656 C 62.746094 39.726562 62.746094 39.730469 62.742188 39.734375 C 62.738281 39.742188 62.738281 39.746094 62.734375 39.753906 C 62.730469 39.757812 62.730469 39.757812 62.730469 39.757812 C 60.445312 44.425781 57.71875 49.125 54.816406 53.472656 " fill-opacity="1" fill-rule="nonzero"/><path fill="#99d13d" d="M 45.621094 65.3125 C 45.621094 64.976562 45.621094 64.640625 45.613281 64.300781 C 49.097656 60.871094 52.789062 56.273438 56.246094 51.160156 C 55.78125 51.933594 55.308594 52.699219 54.828125 53.460938 C 53.640625 55.238281 52.425781 56.957031 51.199219 58.589844 C 49.347656 61.054688 47.46875 63.328125 45.621094 65.3125 " fill-opacity="1" fill-rule="nonzero"/><path fill="#a4d856" d="M 54.828125 53.460938 C 55.308594 52.699219 55.78125 51.933594 56.246094 51.160156 C 56.675781 50.523438 57.101562 49.878906 57.527344 49.226562 C 56.648438 50.664062 55.746094 52.078125 54.828125 53.460938 " fill-opacity="1" fill-rule="nonzero"/><path fill="#91c43e" d="M 45.226562 58.597656 C 45.210938 58.476562 45.195312 58.355469 45.179688 58.238281 C 49.757812 52.863281 54.429688 45.625 57.820312 38.546875 C 62.058594 29.460938 60.402344 19.257812 52.3125 17.375 C 44.222656 15.496094 46.632812 6.722656 33.539062 6.722656 L 33.203125 6.722656 C 20.109375 6.722656 22.519531 15.496094 14.429688 17.375 C 14.035156 17.464844 13.65625 17.578125 13.292969 17.710938 C 13.113281 17.644531 12.925781 17.578125 12.742188 17.511719 C 13.1875 17.339844 13.652344 17.195312 14.140625 17.082031 C 22.355469 15.175781 19.910156 6.265625 33.199219 6.265625 L 33.4375 6.265625 C 46.726562 6.265625 44.28125 15.175781 52.496094 17.082031 C 60.707031 18.992188 62.386719 29.351562 58.085938 38.574219 C 54.636719 45.777344 49.882812 53.136719 45.226562 58.597656 M 19.453125 14.492188 C 19.925781 13.894531 20.40625 13.292969 20.941406 12.71875 C 20.460938 13.328125 19.984375 13.929688 19.453125 14.492188 " fill-opacity="1" fill-rule="nonzero"/><path fill="#f4f9d5" d="M 45.179688 58.238281 C 44.632812 53.910156 43.546875 49.433594 41.808594 45.058594 L 41.808594 31.773438 C 41.808594 31.644531 41.703125 31.539062 41.574219 31.539062 L 33.691406 31.539062 C 32.316406 29.941406 30.804688 28.402344 29.148438 26.953125 C 29.425781 25.195312 30.707031 23.691406 32.476562 23.34375 C 32.761719 23.289062 33.042969 23.265625 33.320312 23.265625 C 35.648438 23.265625 37.542969 25.164062 37.542969 27.5 L 37.542969 30.023438 C 37.542969 30.246094 37.722656 30.425781 37.945312 30.425781 L 39.457031 30.425781 C 39.679688 30.425781 39.863281 30.246094 39.863281 30.023438 L 39.863281 27.789062 C 39.863281 24.367188 37.371094 21.304688 33.972656 20.972656 C 33.753906 20.949219 33.535156 20.941406 33.316406 20.941406 C 30.480469 20.941406 28.058594 22.761719 27.15625 25.300781 C 23.777344 22.660156 19.855469 20.347656 15.332031 18.496094 C 17.144531 17.480469 18.269531 15.996094 19.453125 14.492188 C 19.984375 13.929688 20.460938 13.328125 20.941406 12.71875 C 22.925781 10.585938 25.675781 8.800781 31.582031 8.800781 L 31.8125 8.800781 C 44.90625 8.800781 42.496094 17.574219 50.585938 19.457031 C 58.679688 21.335938 60.335938 31.542969 56.09375 40.628906 C 53.394531 46.261719 49.886719 51.976562 46.257812 56.792969 C 50.445312 51.601562 54.617188 45.019531 57.714844 38.546875 C 61.953125 29.460938 60.300781 19.257812 52.210938 17.375 C 44.121094 15.496094 46.527344 6.722656 33.433594 6.722656 L 33.304688 6.722656 L 33.539062 6.722656 C 46.632812 6.722656 44.222656 15.496094 52.3125 17.375 C 60.402344 19.257812 62.058594 29.460938 57.820312 38.546875 C 54.429688 45.625 49.757812 52.863281 45.179688 58.238281 " fill-opacity="1" fill-rule="nonzero"/><path fill="#acd669" d="M 13.34375 17.726562 C 13.324219 17.722656 13.3125 17.714844 13.292969 17.710938 C 13.65625 17.578125 14.035156 17.464844 14.429688 17.375 C 22.519531 15.496094 20.109375 6.722656 33.203125 6.722656 L 33.304688 6.722656 C 25.539062 6.722656 23.226562 9.8125 20.941406 12.71875 C 20.40625 13.292969 19.925781 13.894531 19.453125 14.492188 C 18.257812 15.765625 16.8125 16.847656 14.53125 17.375 C 14.117188 17.472656 13.722656 17.589844 13.34375 17.726562 " fill-opacity="1" fill-rule="nonzero"/><path fill="#f7fbdd" d="M 46.257812 56.792969 C 49.886719 51.976562 53.394531 46.261719 56.09375 40.628906 C 60.335938 31.542969 58.679688 21.335938 50.585938 19.457031 C 42.496094 17.574219 44.90625 8.800781 31.8125 8.800781 L 31.582031 8.800781 C 25.675781 8.800781 22.925781 10.585938 20.941406 12.71875 C 23.226562 9.8125 25.539062 6.722656 33.304688 6.722656 L 33.433594 6.722656 C 46.527344 6.722656 44.121094 15.496094 52.210938 17.375 C 60.300781 19.257812 61.953125 29.460938 57.714844 38.546875 C 54.617188 45.019531 50.445312 51.601562 46.257812 56.792969 M 15.332031 18.496094 C 14.679688 18.230469 14.019531 17.972656 13.34375 17.726562 C 13.722656 17.589844 14.117188 17.472656 14.53125 17.375 C 16.8125 16.847656 18.257812 15.765625 19.453125 14.492188 C 18.269531 15.996094 17.144531 17.480469 15.332031 18.496094 " fill-opacity="1" fill-rule="nonzero"/><path fill="#f8d963" d="M 41.808594 45.058594 C 39.921875 40.324219 37.269531 35.710938 33.691406 31.539062 L 41.574219 31.539062 C 41.703125 31.539062 41.808594 31.644531 41.808594 31.773438 L 41.808594 45.058594 " fill-opacity="1" fill-rule="nonzero"/><path fill="#a1d841" d="M 39.457031 30.425781 L 37.945312 30.425781 C 37.722656 30.425781 37.542969 30.246094 37.542969 30.023438 L 37.542969 27.5 C 37.542969 25.164062 35.648438 23.265625 33.320312 23.265625 C 33.042969 23.265625 32.761719 23.289062 32.476562 23.34375 C 30.707031 23.691406 29.425781 25.195312 29.148438 26.953125 C 28.507812 26.386719 27.84375 25.835938 27.15625 25.300781 C 28.058594 22.761719 30.480469 20.941406 33.316406 20.941406 C 33.535156 20.941406 33.753906 20.949219 33.972656 20.972656 C 37.371094 21.304688 39.863281 24.367188 39.863281 27.789062 L 39.863281 30.023438 C 39.863281 30.246094 39.679688 30.425781 39.457031 30.425781 " fill-opacity="1" fill-rule="nonzero"/><path fill="#f5fad8" d="M 70.746094 43.300781 C 70.0625 43.300781 69.535156 43.558594 69.160156 44.074219 C 68.785156 44.585938 68.601562 45.300781 68.601562 46.21875 C 68.601562 48.132812 69.3125 49.085938 70.746094 49.085938 C 71.34375 49.085938 72.070312 48.9375 72.925781 48.632812 L 72.925781 50.15625 C 72.222656 50.449219 71.441406 50.597656 70.574219 50.597656 C 69.332031 50.597656 68.382812 50.21875 67.722656 49.464844 C 67.066406 48.707031 66.734375 47.621094 66.734375 46.207031 C 66.734375 45.316406 66.898438 44.535156 67.21875 43.867188 C 67.542969 43.195312 68.007812 42.683594 68.613281 42.328125 C 69.21875 41.96875 69.929688 41.789062 70.746094 41.789062 C 71.574219 41.789062 72.40625 41.992188 73.246094 42.394531 L 72.660156 43.871094 C 72.34375 43.71875 72.019531 43.585938 71.699219 43.472656 C 71.375 43.359375 71.058594 43.300781 70.746094 43.300781 " fill-opacity="1" fill-rule="nonzero"/><path fill="#f5fad8" d="M 79.664062 50.480469 L 74.742188 50.480469 L 74.742188 41.914062 L 79.664062 41.914062 L 79.664062 43.402344 L 76.554688 43.402344 L 76.554688 45.28125 L 79.449219 45.28125 L 79.449219 46.769531 L 76.554688 46.769531 L 76.554688 48.980469 L 79.664062 48.980469 L 79.664062 50.480469 " fill-opacity="1" fill-rule="nonzero"/><path fill="#f5fad8" d="M 83.257812 45.71875 L 83.84375 45.71875 C 84.417969 45.71875 84.839844 45.621094 85.113281 45.429688 C 85.382812 45.238281 85.519531 44.9375 85.519531 44.527344 C 85.519531 44.121094 85.382812 43.832031 85.101562 43.660156 C 84.824219 43.488281 84.394531 43.402344 83.808594 43.402344 L 83.257812 43.402344 Z M 83.257812 47.191406 L 83.257812 50.480469 L 81.445312 50.480469 L 81.445312 41.914062 L 83.9375 41.914062 C 85.097656 41.914062 85.957031 42.125 86.515625 42.546875 C 87.070312 42.972656 87.351562 43.617188 87.351562 44.480469 C 87.351562 44.984375 87.210938 45.429688 86.933594 45.824219 C 86.660156 46.214844 86.269531 46.523438 85.761719 46.746094 C 87.046875 48.671875 87.882812 49.917969 88.273438 50.480469 L 86.265625 50.480469 L 84.222656 47.191406 L 83.257812 47.191406 " fill-opacity="1" fill-rule="nonzero"/><path fill="#f5fad8" d="M 92.644531 50.480469 L 90.832031 50.480469 L 90.832031 43.425781 L 88.511719 43.425781 L 88.511719 41.914062 L 94.964844 41.914062 L 94.964844 43.425781 L 92.644531 43.425781 L 92.644531 50.480469 " fill-opacity="1" fill-rule="nonzero"/><path fill="#f5fad8" d="M 96.28125 50.480469 L 96.28125 41.914062 L 98.09375 41.914062 L 98.09375 50.480469 L 96.28125 50.480469 " fill-opacity="1" fill-rule="nonzero"/><path fill="#f5fad8" d="M 102.027344 50.480469 L 100.242188 50.480469 L 100.242188 41.914062 L 105.140625 41.914062 L 105.140625 43.402344 L 102.027344 43.402344 L 102.027344 45.609375 L 104.925781 45.609375 L 104.925781 47.09375 L 102.027344 47.09375 L 102.027344 50.480469 " fill-opacity="1" fill-rule="nonzero"/><path fill="#f5fad8" d="M 106.8125 50.480469 L 106.8125 41.914062 L 108.625 41.914062 L 108.625 50.480469 L 106.8125 50.480469 " fill-opacity="1" fill-rule="nonzero"/><path fill="#f5fad8" d="M 114.40625 43.300781 C 113.722656 43.300781 113.195312 43.558594 112.820312 44.074219 C 112.449219 44.585938 112.261719 45.300781 112.261719 46.21875 C 112.261719 48.132812 112.976562 49.085938 114.40625 49.085938 C 115.007812 49.085938 115.734375 48.9375 116.585938 48.632812 L 116.585938 50.15625 C 115.886719 50.449219 115.101562 50.597656 114.238281 50.597656 C 112.992188 50.597656 112.042969 50.21875 111.386719 49.464844 C 110.726562 48.707031 110.394531 47.621094 110.394531 46.207031 C 110.394531 45.316406 110.558594 44.535156 110.882812 43.867188 C 111.203125 43.195312 111.671875 42.683594 112.277344 42.328125 C 112.878906 41.96875 113.589844 41.789062 114.40625 41.789062 C 115.234375 41.789062 116.070312 41.992188 116.90625 42.394531 L 116.324219 43.871094 C 116.003906 43.71875 115.679688 43.585938 115.359375 43.472656 C 115.035156 43.359375 114.71875 43.300781 114.40625 43.300781 " fill-opacity="1" fill-rule="nonzero"/><path fill="#f5fad8" d="M 122.585938 46.917969 C 122.011719 45.070312 121.6875 44.023438 121.617188 43.78125 C 121.546875 43.539062 121.492188 43.347656 121.460938 43.207031 C 121.332031 43.707031 120.964844 44.945312 120.355469 46.917969 Z M 123.636719 50.480469 L 123.015625 48.441406 L 119.902344 48.441406 L 119.28125 50.480469 L 117.328125 50.480469 L 120.34375 41.878906 L 122.558594 41.878906 L 125.589844 50.480469 L 123.636719 50.480469 " fill-opacity="1" fill-rule="nonzero"/><path fill="#f5fad8" d="M 129.957031 50.480469 L 128.148438 50.480469 L 128.148438 43.425781 L 125.828125 43.425781 L 125.828125 41.914062 L 132.28125 41.914062 L 132.28125 43.425781 L 129.957031 43.425781 L 129.957031 50.480469 " fill-opacity="1" fill-rule="nonzero"/><path fill="#f5fad8" d="M 138.515625 50.480469 L 133.59375 50.480469 L 133.59375 41.914062 L 138.515625 41.914062 L 138.515625 43.402344 L 135.40625 43.402344 L 135.40625 45.28125 L 138.300781 45.28125 L 138.300781 46.769531 L 135.40625 46.769531 L 135.40625 48.980469 L 138.515625 48.980469 L 138.515625 50.480469 " fill-opacity="1" fill-rule="nonzero"/><path fill="#f5fad8" d="M 95.808594 32.832031 C 95.808594 34.289062 95.285156 35.4375 94.238281 36.277344 C 93.195312 37.113281 91.738281 37.535156 89.875 37.535156 C 88.15625 37.535156 86.636719 37.210938 85.3125 36.5625 L 85.3125 33.382812 C 86.402344 33.871094 87.320312 34.210938 88.070312 34.410156 C 88.824219 34.609375 89.511719 34.707031 90.136719 34.707031 C 90.886719 34.707031 91.460938 34.5625 91.859375 34.277344 C 92.261719 33.992188 92.460938 33.5625 92.460938 32.996094 C 92.460938 32.679688 92.371094 32.402344 92.195312 32.152344 C 92.019531 31.90625 91.761719 31.667969 91.421875 31.441406 C 91.078125 31.214844 90.382812 30.847656 89.332031 30.347656 C 88.347656 29.882812 87.613281 29.4375 87.121094 29.011719 C 86.628906 28.585938 86.234375 28.085938 85.941406 27.519531 C 85.648438 26.953125 85.5 26.289062 85.5 25.535156 C 85.5 24.105469 85.984375 22.984375 86.949219 22.164062 C 87.914062 21.347656 89.25 20.941406 90.953125 20.941406 C 91.789062 20.941406 92.585938 21.039062 93.347656 21.238281 C 94.105469 21.4375 94.902344 21.71875 95.730469 22.078125 L 94.628906 24.738281 C 93.769531 24.382812 93.0625 24.140625 92.5 24 C 91.9375 23.859375 91.386719 23.789062 90.84375 23.789062 C 90.195312 23.789062 89.699219 23.941406 89.355469 24.242188 C 89.007812 24.542969 88.839844 24.9375 88.839844 25.421875 C 88.839844 25.722656 88.90625 25.988281 89.046875 26.210938 C 89.1875 26.4375 89.40625 26.652344 89.714844 26.863281 C 90.015625 27.074219 90.738281 27.449219 91.878906 27.996094 C 93.382812 28.714844 94.414062 29.441406 94.972656 30.164062 C 95.53125 30.890625 95.808594 31.777344 95.808594 32.832031 " fill-opacity="1" fill-rule="nonzero"/><path fill="#f5fad8" d="M 108.230469 32.832031 C 108.230469 34.289062 107.707031 35.4375 106.660156 36.277344 C 105.617188 37.113281 104.160156 37.535156 102.292969 37.535156 C 100.578125 37.535156 99.054688 37.210938 97.734375 36.5625 L 97.734375 33.382812 C 98.820312 33.871094 99.742188 34.210938 100.492188 34.410156 C 101.246094 34.609375 101.933594 34.707031 102.558594 34.707031 C 103.308594 34.707031 103.882812 34.5625 104.28125 34.277344 C 104.683594 33.992188 104.882812 33.5625 104.882812 32.996094 C 104.882812 32.679688 104.792969 32.402344 104.617188 32.152344 C 104.441406 31.90625 104.183594 31.667969 103.839844 31.441406 C 103.5 31.214844 102.804688 30.847656 101.753906 30.347656 C 100.773438 29.882812 100.035156 29.4375 99.542969 29.011719 C 99.050781 28.585938 98.65625 28.085938 98.363281 27.519531 C 98.070312 26.953125 97.921875 26.289062 97.921875 25.535156 C 97.921875 24.105469 98.40625 22.984375 99.371094 22.164062 C 100.335938 21.347656 101.671875 20.941406 103.375 20.941406 C 104.210938 20.941406 105.007812 21.039062 105.769531 21.238281 C 106.527344 21.4375 107.324219 21.71875 108.152344 22.078125 L 107.050781 24.738281 C 106.191406 24.382812 105.484375 24.140625 104.921875 24 C 104.359375 23.859375 103.808594 23.789062 103.265625 23.789062 C 102.617188 23.789062 102.121094 23.941406 101.777344 24.242188 C 101.433594 24.542969 101.257812 24.9375 101.257812 25.421875 C 101.257812 25.722656 101.328125 25.988281 101.46875 26.210938 C 101.609375 26.4375 101.832031 26.652344 102.136719 26.863281 C 102.4375 27.074219 103.164062 27.449219 104.300781 27.996094 C 105.804688 28.714844 106.835938 29.441406 107.394531 30.164062 C 107.953125 30.890625 108.230469 31.777344 108.230469 32.832031 " fill-opacity="1" fill-rule="nonzero"/><path fill="#f5fad8" d="M 111.148438 37.3125 L 111.148438 21.171875 L 114.5625 21.171875 L 114.5625 34.488281 L 121.09375 34.488281 L 121.09375 37.3125 L 111.148438 37.3125 " fill-opacity="1" fill-rule="nonzero"/><path fill="#f5fad8" d="M 80.824219 30.722656 L 72.390625 30.722656 C 71.984375 30.722656 71.652344 30.390625 71.652344 29.984375 C 71.652344 29.574219 71.984375 29.242188 72.390625 29.242188 L 80.824219 29.242188 C 81.234375 29.242188 81.5625 29.574219 81.5625 29.984375 C 81.5625 30.390625 81.234375 30.722656 80.824219 30.722656 " fill-opacity="1" fill-rule="nonzero"/><path fill="#f5fad8" d="M 134.015625 30.722656 L 125.582031 30.722656 C 125.171875 30.722656 124.84375 30.390625 124.84375 29.984375 C 124.84375 29.574219 125.171875 29.242188 125.582031 29.242188 L 134.015625 29.242188 C 134.421875 29.242188 134.753906 29.574219 134.753906 29.984375 C 134.753906 30.390625 134.421875 30.722656 134.015625 30.722656 " fill-opacity="1" fill-rule="nonzero"/><g clip-path="url(#e4a619e7f4)"><path fill="#83c927" d="M 148.84375 60.421875 L 35.957031 60.421875 C 35.734375 60.421875 35.550781 60.242188 35.550781 60.015625 L 35.550781 13.480469 C 35.550781 13.257812 35.734375 13.074219 35.957031 13.074219 L 148.84375 13.074219 C 149.066406 13.074219 149.25 13.257812 149.25 13.480469 L 149.25 60.015625 C 149.25 60.242188 149.066406 60.421875 148.84375 60.421875 " fill-opacity="1" fill-rule="nonzero"/></g><path fill="#f5fad8" d="M 147.800781 59.0625 L 36.996094 59.0625 C 36.78125 59.0625 36.605469 58.886719 36.605469 58.671875 L 36.605469 14.828125 C 36.605469 14.609375 36.78125 14.4375 36.996094 14.4375 L 147.800781 14.4375 C 148.019531 14.4375 148.195312 14.609375 148.195312 14.828125 L 148.195312 58.671875 C 148.195312 58.886719 148.019531 59.0625 147.800781 59.0625 " fill-opacity="1" fill-rule="nonzero"/><path fill="#83c927" d="M 144.378906 56.792969 L 39.097656 56.792969 C 38.898438 56.792969 38.738281 56.628906 38.738281 56.429688 L 38.738281 17.066406 C 38.738281 16.867188 38.898438 16.707031 39.097656 16.707031 L 144.378906 16.707031 C 144.578125 16.707031 144.742188 16.867188 144.742188 17.066406 L 144.742188 56.429688 C 144.742188 56.628906 144.578125 56.792969 144.378906 56.792969 " fill-opacity="1" fill-rule="nonzero"/><path fill="#6bb42f" d="M 53.074219 60.421875 L 49.792969 60.421875 C 50.144531 59.976562 50.496094 59.523438 50.84375 59.0625 L 54.128906 59.0625 C 53.777344 59.523438 53.425781 59.976562 53.074219 60.421875 M 63.089844 14.4375 L 59.800781 14.4375 C 58.792969 13.832031 57.660156 13.375 56.394531 13.082031 C 56.386719 13.078125 56.375 13.078125 56.367188 13.074219 L 59.65625 13.074219 L 59.683594 13.082031 C 60.945312 13.375 62.082031 13.832031 63.089844 14.4375 " fill-opacity="1" fill-rule="nonzero"/><path fill="#bee6a6" d="M 54.128906 59.0625 L 50.84375 59.0625 C 51.40625 58.324219 51.96875 57.566406 52.523438 56.792969 L 55.808594 56.792969 C 55.25 57.566406 54.691406 58.324219 54.128906 59.0625 M 65.789062 16.707031 L 62.5 16.707031 C 61.734375 15.816406 60.832031 15.050781 59.800781 14.4375 L 63.089844 14.4375 C 64.121094 15.050781 65.019531 15.816406 65.789062 16.707031 " fill-opacity="1" fill-rule="nonzero"/><path fill="#6bb42f" d="M 55.808594 56.792969 L 52.523438 56.792969 C 56.445312 51.335938 60.179688 45.09375 63.125 38.949219 C 66.960938 30.714844 66.84375 21.738281 62.5 16.707031 L 65.789062 16.707031 C 70.132812 21.738281 70.25 30.714844 66.414062 38.949219 C 63.464844 45.09375 59.730469 51.339844 55.808594 56.792969 " fill-opacity="1" fill-rule="nonzero"/><g clip-path="url(#0a24c8aa51)"><path fill="#83c927" d="M 56.394531 13.082031 C 46.511719 10.785156 49.457031 0.0625 33.460938 0.0625 L 33.175781 0.0625 C 17.183594 0.0625 20.125 10.785156 10.242188 13.082031 C 0.355469 15.378906 -1.664062 27.84375 3.515625 38.949219 C 11.597656 55.824219 25.632812 73.433594 33.175781 73.433594 C 33.226562 73.433594 33.414062 73.433594 33.460938 73.433594 C 41.003906 73.433594 55.039062 55.824219 63.125 38.949219 C 68.304688 27.84375 66.28125 15.378906 56.394531 13.082031 " fill-opacity="1" fill-rule="nonzero"/></g><path fill="#95d333" d="M 62.730469 39.757812 C 62.730469 39.757812 62.730469 39.757812 62.734375 39.753906 C 62.730469 39.757812 62.730469 39.757812 62.730469 39.757812 M 62.742188 39.734375 C 62.746094 39.730469 62.746094 39.726562 62.75 39.722656 C 62.746094 39.726562 62.746094 39.730469 62.742188 39.734375 M 62.753906 39.710938 C 62.757812 39.703125 62.761719 39.695312 62.765625 39.6875 C 62.761719 39.695312 62.757812 39.703125 62.753906 39.710938 M 62.765625 39.683594 C 62.886719 39.4375 63.007812 39.191406 63.125 38.949219 C 63.007812 39.191406 62.886719 39.4375 62.765625 39.683594 M 65.886719 27.15625 C 65.886719 20.292969 62.78125 14.566406 56.394531 13.082031 C 46.511719 10.785156 49.457031 0.0625 33.460938 0.0625 L 33.175781 0.0625 L 33.460938 0.0625 C 49.457031 0.0625 46.511719 10.785156 56.394531 13.082031 C 62.78125 14.566406 65.886719 20.292969 65.886719 27.15625 M 2.382812 19.398438 C 3.882812 16.316406 6.421875 14.03125 10.039062 13.128906 C 8.238281 13.578125 6.707031 14.375 5.433594 15.4375 C 6.113281 15.585938 6.78125 15.746094 7.4375 15.914062 C 5.921875 16.429688 4.621094 17.210938 3.527344 18.199219 C 3.691406 17.71875 3.875 17.253906 4.082031 16.800781 C 3.433594 17.566406 2.878906 18.421875 2.421875 19.347656 C 2.410156 19.363281 2.394531 19.378906 2.382812 19.398438 M 10.042969 13.128906 C 10.046875 13.128906 10.050781 13.125 10.058594 13.125 C 10.050781 13.125 10.046875 13.128906 10.042969 13.128906 M 10.066406 13.125 C 10.066406 13.125 10.070312 13.121094 10.070312 13.121094 C 10.070312 13.121094 10.066406 13.125 10.066406 13.125 " fill-opacity="1" fill-rule="nonzero"/><g clip-path="url(#e2f9663670)"><path fill="#d6e4bc" d="M 33.460938 73.433594 C 33.414062 73.433594 33.226562 73.433594 33.175781 73.433594 C 33.113281 73.433594 33.050781 73.433594 32.988281 73.429688 C 33.050781 73.433594 33.113281 73.433594 33.175781 73.433594 C 33.226562 73.433594 33.414062 73.433594 33.460938 73.433594 C 33.464844 73.433594 33.46875 73.433594 33.46875 73.433594 C 33.46875 73.433594 33.464844 73.433594 33.460938 73.433594 M 33.472656 73.433594 C 33.476562 73.433594 33.480469 73.433594 33.480469 73.433594 C 33.480469 73.433594 33.476562 73.433594 33.472656 73.433594 M 33.484375 73.433594 C 33.488281 73.433594 33.488281 73.433594 33.492188 73.433594 C 33.488281 73.433594 33.488281 73.433594 33.484375 73.433594 M 33.496094 73.433594 C 33.5 73.433594 33.5 73.433594 33.503906 73.433594 C 33.5 73.433594 33.5 73.433594 33.496094 73.433594 M 33.507812 73.433594 C 33.507812 73.433594 33.511719 73.433594 33.515625 73.433594 C 33.511719 73.433594 33.507812 73.433594 33.507812 73.433594 M 33.519531 73.433594 C 33.519531 73.433594 33.523438 73.433594 33.527344 73.433594 C 33.523438 73.433594 33.519531 73.433594 33.519531 73.433594 M 33.53125 73.433594 C 33.53125 73.433594 33.535156 73.433594 33.535156 73.433594 C 33.535156 73.433594 33.53125 73.433594 33.53125 73.433594 M 33.539062 73.433594 C 33.542969 73.433594 33.546875 73.433594 33.550781 73.433594 C 33.546875 73.433594 33.542969 73.433594 33.539062 73.433594 M 33.550781 73.433594 C 33.554688 73.433594 33.558594 73.433594 33.558594 73.433594 C 33.558594 73.433594 33.554688 73.433594 33.550781 73.433594 M 33.5625 73.433594 C 33.566406 73.433594 33.566406 73.433594 33.570312 73.433594 C 33.566406 73.433594 33.566406 73.433594 33.5625 73.433594 M 33.574219 73.433594 C 33.574219 73.433594 33.578125 73.433594 33.578125 73.433594 C 33.578125 73.433594 33.574219 73.433594 33.574219 73.433594 M 33.582031 73.433594 C 33.585938 73.433594 33.589844 73.433594 33.59375 73.433594 C 33.589844 73.433594 33.585938 73.433594 33.582031 73.433594 M 33.597656 73.433594 C 33.597656 73.433594 33.601562 73.433594 33.601562 73.433594 C 33.601562 73.433594 33.597656 73.433594 33.597656 73.433594 M 33.609375 73.429688 C 33.609375 73.429688 33.613281 73.429688 33.613281 73.429688 C 33.613281 73.429688 33.609375 73.429688 33.609375 73.429688 M 33.617188 73.429688 C 33.621094 73.429688 33.621094 73.429688 33.625 73.429688 C 33.621094 73.429688 33.621094 73.429688 33.617188 73.429688 M 33.628906 73.429688 C 33.632812 73.429688 33.636719 73.429688 33.636719 73.429688 C 33.636719 73.429688 33.632812 73.429688 33.628906 73.429688 M 33.644531 73.429688 C 33.644531 73.429688 33.644531 73.429688 33.648438 73.429688 C 33.648438 73.429688 33.644531 73.429688 33.644531 73.429688 M 33.652344 73.429688 C 33.65625 73.429688 33.65625 73.429688 33.660156 73.429688 C 33.65625 73.429688 33.65625 73.429688 33.652344 73.429688 M 33.664062 73.429688 C 33.664062 73.429688 33.667969 73.429688 33.667969 73.429688 C 33.667969 73.429688 33.664062 73.429688 33.664062 73.429688 M 33.6875 73.429688 C 33.6875 73.429688 33.691406 73.429688 33.691406 73.429688 C 33.691406 73.429688 33.691406 73.429688 33.6875 73.429688 M 33.699219 73.429688 C 33.699219 73.429688 33.699219 73.429688 33.703125 73.429688 C 33.699219 73.429688 33.699219 73.429688 33.699219 73.429688 M 33.707031 73.425781 C 33.710938 73.425781 33.710938 73.425781 33.710938 73.425781 C 33.710938 73.425781 33.710938 73.425781 33.707031 73.425781 M 33.734375 73.425781 C 33.734375 73.425781 33.734375 73.425781 33.738281 73.425781 C 33.734375 73.425781 33.734375 73.425781 33.734375 73.425781 M 33.742188 73.425781 C 33.746094 73.425781 33.746094 73.425781 33.746094 73.425781 C 33.746094 73.425781 33.746094 73.425781 33.742188 73.425781 " fill-opacity="1" fill-rule="nonzero"/></g><g clip-path="url(#d03951db25)"><path fill="#7aba2a" d="M 33.460938 73.433594 C 33.414062 73.433594 33.226562 73.433594 33.175781 73.433594 C 33.113281 73.433594 33.050781 73.433594 32.988281 73.429688 C 25.398438 73.140625 11.53125 55.683594 3.515625 38.949219 C 0.273438 32.003906 -0.136719 24.535156 2.421875 19.347656 C 2.765625 18.941406 3.132812 18.554688 3.527344 18.199219 C 1.820312 23.238281 2.457031 29.84375 5.34375 36.035156 C 13.429688 52.910156 27.460938 70.523438 35.007812 70.523438 C 35.054688 70.523438 35.242188 70.523438 35.289062 70.523438 C 38.0625 70.523438 41.710938 68.144531 45.613281 64.300781 C 45.621094 64.640625 45.621094 64.976562 45.621094 65.3125 C 47.46875 63.328125 49.347656 61.054688 51.199219 58.589844 C 44.894531 66.988281 38.277344 73.132812 33.789062 73.421875 C 33.789062 73.421875 33.785156 73.421875 33.78125 73.421875 C 33.769531 73.425781 33.757812 73.425781 33.746094 73.425781 C 33.746094 73.425781 33.746094 73.425781 33.742188 73.425781 C 33.742188 73.425781 33.738281 73.425781 33.738281 73.425781 C 33.734375 73.425781 33.734375 73.425781 33.734375 73.425781 C 33.726562 73.425781 33.71875 73.425781 33.710938 73.425781 C 33.710938 73.425781 33.710938 73.425781 33.707031 73.425781 C 33.707031 73.425781 33.703125 73.429688 33.703125 73.429688 C 33.699219 73.429688 33.699219 73.429688 33.699219 73.429688 C 33.695312 73.429688 33.695312 73.429688 33.691406 73.429688 C 33.691406 73.429688 33.6875 73.429688 33.6875 73.429688 C 33.683594 73.429688 33.679688 73.429688 33.675781 73.429688 C 33.671875 73.429688 33.671875 73.429688 33.667969 73.429688 C 33.667969 73.429688 33.664062 73.429688 33.664062 73.429688 C 33.660156 73.429688 33.660156 73.429688 33.660156 73.429688 C 33.65625 73.429688 33.65625 73.429688 33.652344 73.429688 C 33.652344 73.429688 33.648438 73.429688 33.648438 73.429688 C 33.644531 73.429688 33.644531 73.429688 33.644531 73.429688 C 33.640625 73.429688 33.640625 73.429688 33.636719 73.429688 C 33.636719 73.429688 33.632812 73.429688 33.628906 73.429688 C 33.628906 73.429688 33.625 73.429688 33.625 73.429688 C 33.621094 73.429688 33.621094 73.429688 33.617188 73.429688 C 33.617188 73.429688 33.617188 73.429688 33.613281 73.429688 C 33.613281 73.429688 33.609375 73.429688 33.609375 73.429688 C 33.605469 73.429688 33.605469 73.429688 33.601562 73.433594 C 33.601562 73.433594 33.597656 73.433594 33.597656 73.433594 C 33.59375 73.433594 33.59375 73.433594 33.59375 73.433594 C 33.589844 73.433594 33.585938 73.433594 33.582031 73.433594 C 33.582031 73.433594 33.582031 73.433594 33.578125 73.433594 C 33.578125 73.433594 33.574219 73.433594 33.574219 73.433594 C 33.570312 73.433594 33.570312 73.433594 33.570312 73.433594 C 33.566406 73.433594 33.566406 73.433594 33.5625 73.433594 C 33.5625 73.433594 33.558594 73.433594 33.558594 73.433594 C 33.558594 73.433594 33.554688 73.433594 33.550781 73.433594 C 33.546875 73.433594 33.542969 73.433594 33.539062 73.433594 C 33.539062 73.433594 33.539062 73.433594 33.535156 73.433594 C 33.535156 73.433594 33.53125 73.433594 33.53125 73.433594 C 33.527344 73.433594 33.527344 73.433594 33.527344 73.433594 C 33.523438 73.433594 33.519531 73.433594 33.519531 73.433594 C 33.515625 73.433594 33.515625 73.433594 33.515625 73.433594 C 33.511719 73.433594 33.507812 73.433594 33.507812 73.433594 C 33.507812 73.433594 33.503906 73.433594 33.503906 73.433594 C 33.5 73.433594 33.5 73.433594 33.496094 73.433594 C 33.492188 73.433594 33.492188 73.433594 33.492188 73.433594 C 33.488281 73.433594 33.488281 73.433594 33.484375 73.433594 C 33.484375 73.433594 33.484375 73.433594 33.480469 73.433594 C 33.480469 73.433594 33.476562 73.433594 33.472656 73.433594 C 33.472656 73.433594 33.472656 73.433594 33.46875 73.433594 C 33.46875 73.433594 33.464844 73.433594 33.460938 73.433594 " fill-opacity="1" fill-rule="nonzero"/></g><path fill="#89c42d" d="M 2.421875 19.347656 C 2.878906 18.421875 3.433594 17.566406 4.082031 16.800781 C 3.875 17.253906 3.691406 17.71875 3.527344 18.199219 C 3.132812 18.554688 2.765625 18.941406 2.421875 19.347656 " fill-opacity="1" fill-rule="nonzero"/><path fill="#6fa72c" d="M 52.496094 17.082031 C 44.28125 15.175781 46.726562 6.265625 33.4375 6.265625 L 33.199219 6.265625 C 19.910156 6.265625 22.355469 15.175781 14.140625 17.082031 C 5.929688 18.992188 4.25 29.351562 8.550781 38.574219 C 15.269531 52.597656 26.933594 67.230469 33.199219 67.230469 C 33.242188 67.230469 33.398438 67.230469 33.4375 67.230469 C 39.707031 67.230469 51.367188 52.597656 58.085938 38.574219 C 62.386719 29.351562 60.707031 18.992188 52.496094 17.082031 " fill-opacity="1" fill-rule="nonzero"/><path fill="#f5fad8" d="M 52.3125 17.375 C 44.222656 15.496094 46.632812 6.722656 33.539062 6.722656 L 33.304688 6.722656 C 20.214844 6.722656 22.621094 15.496094 14.53125 17.375 C 6.441406 19.257812 4.785156 29.460938 9.027344 38.546875 C 15.644531 52.359375 27.128906 66.777344 33.304688 66.777344 C 33.347656 66.777344 33.5 66.777344 33.539062 66.777344 C 39.714844 66.777344 51.203125 52.359375 57.820312 38.546875 C 62.058594 29.460938 60.402344 19.257812 52.3125 17.375 " fill-opacity="1" fill-rule="nonzero"/><path fill="#93c347" d="M 8.394531 21.84375 C 9.492188 19.953125 11.117188 18.492188 13.292969 17.710938 C 13.3125 17.714844 13.324219 17.722656 13.34375 17.726562 C 11.246094 18.488281 9.660156 19.875 8.570312 21.675781 C 8.511719 21.730469 8.453125 21.785156 8.394531 21.84375 " fill-opacity="1" fill-rule="nonzero"/><path fill="#f9fce3" d="M 8.570312 21.675781 C 9.660156 19.875 11.246094 18.488281 13.34375 17.726562 C 14.019531 17.972656 14.679688 18.230469 15.332031 18.496094 C 14.613281 18.898438 13.785156 19.226562 12.804688 19.457031 C 11.105469 19.851562 9.707031 20.628906 8.570312 21.675781 " fill-opacity="1" fill-rule="nonzero"/><path fill="#fbc740" d="M 41.574219 46.582031 L 25.0625 46.582031 C 24.933594 46.582031 24.832031 46.476562 24.832031 46.347656 L 24.832031 31.773438 C 24.832031 31.644531 24.933594 31.539062 25.0625 31.539062 L 41.574219 31.539062 C 41.703125 31.539062 41.808594 31.644531 41.808594 31.773438 L 41.808594 46.347656 C 41.808594 46.476562 41.703125 46.582031 41.574219 46.582031 " fill-opacity="1" fill-rule="nonzero"/><path fill="#83c927" d="M 29.09375 30.023438 L 29.09375 27.667969 C 29.09375 25.617188 30.46875 23.738281 32.476562 23.34375 C 35.175781 22.820312 37.542969 24.886719 37.542969 27.5 L 37.542969 30.023438 C 37.542969 30.246094 37.722656 30.425781 37.945312 30.425781 L 39.457031 30.425781 C 39.679688 30.425781 39.863281 30.246094 39.863281 30.023438 L 39.863281 27.789062 C 39.863281 24.367188 37.371094 21.304688 33.972656 20.972656 C 30.074219 20.589844 26.777344 23.667969 26.777344 27.5 L 26.777344 30.023438 C 26.777344 30.246094 26.957031 30.425781 27.179688 30.425781 L 28.691406 30.425781 C 28.914062 30.425781 29.09375 30.246094 29.09375 30.023438 " fill-opacity="1" fill-rule="nonzero"/><path fill="#f5fad8" d="M 35.148438 39.804688 C 35.148438 38.847656 34.375 38.074219 33.421875 38.074219 C 32.46875 38.074219 31.699219 38.847656 31.699219 39.804688 C 31.699219 40.375 31.992188 40.859375 32.417969 41.171875 L 32.417969 43.121094 C 32.417969 43.527344 32.75 43.859375 33.15625 43.859375 L 33.691406 43.859375 C 34.097656 43.859375 34.429688 43.527344 34.429688 43.121094 L 34.429688 41.171875 C 34.851562 40.859375 35.148438 40.375 35.148438 39.804688 " fill-opacity="1" fill-rule="nonzero"/><path fill="#fbfdf0" d="M 10.105469 13.113281 C 10.109375 13.113281 10.109375 13.113281 10.109375 13.113281 C 10.105469 13.113281 10.109375 13.113281 10.105469 13.113281 M 10.128906 13.109375 C 10.128906 13.109375 10.132812 13.109375 10.132812 13.105469 C 10.132812 13.109375 10.128906 13.109375 10.128906 13.109375 M 10.148438 13.105469 C 10.148438 13.101562 10.152344 13.101562 10.15625 13.101562 C 10.152344 13.101562 10.148438 13.101562 10.148438 13.105469 M 10.171875 13.097656 C 10.171875 13.097656 10.175781 13.097656 10.179688 13.097656 C 10.179688 13.097656 10.175781 13.097656 10.175781 13.097656 C 10.171875 13.097656 10.171875 13.097656 10.171875 13.097656 M 10.191406 13.09375 C 10.195312 13.09375 10.199219 13.09375 10.203125 13.089844 C 10.199219 13.09375 10.195312 13.09375 10.191406 13.09375 M 10.214844 13.085938 C 10.21875 13.085938 10.21875 13.085938 10.222656 13.085938 C 10.21875 13.085938 10.21875 13.085938 10.21875 13.085938 C 10.21875 13.085938 10.214844 13.085938 10.214844 13.085938 " fill-opacity="1" fill-rule="nonzero"/><path fill="#a1d841" d="M 45.613281 64.300781 C 45.585938 62.445312 45.457031 60.539062 45.226562 58.597656 C 49.882812 53.136719 54.636719 45.777344 58.085938 38.574219 C 62.386719 29.351562 60.707031 18.992188 52.496094 17.082031 C 44.28125 15.175781 46.726562 6.265625 33.4375 6.265625 L 33.199219 6.265625 C 19.910156 6.265625 22.355469 15.175781 14.140625 17.082031 C 13.652344 17.195312 13.1875 17.339844 12.742188 17.511719 C 11.050781 16.917969 9.289062 16.382812 7.4375 15.914062 C 7.820312 15.785156 8.210938 15.671875 8.617188 15.578125 C 18.503906 13.28125 15.558594 2.558594 31.554688 2.558594 L 31.839844 2.558594 C 47.835938 2.558594 44.890625 13.28125 54.773438 15.578125 C 64.660156 17.875 66.683594 30.34375 61.503906 41.441406 C 59.941406 44.699219 58.160156 47.980469 56.246094 51.160156 C 52.789062 56.273438 49.097656 60.871094 45.613281 64.300781 M 51.199219 58.589844 C 52.425781 56.957031 53.640625 55.238281 54.828125 53.460938 C 54.824219 53.464844 54.820312 53.46875 54.816406 53.472656 C 57.71875 49.125 60.445312 44.425781 62.730469 39.757812 C 59.511719 46.332031 55.425781 52.964844 51.199219 58.589844 M 62.734375 39.753906 C 62.738281 39.746094 62.738281 39.742188 62.742188 39.734375 C 62.738281 39.742188 62.734375 39.746094 62.734375 39.753906 M 62.75 39.722656 C 62.75 39.71875 62.753906 39.714844 62.753906 39.710938 C 62.753906 39.714844 62.75 39.71875 62.75 39.722656 M 62.765625 39.6875 C 62.765625 39.6875 62.765625 39.6875 62.765625 39.683594 C 62.765625 39.6875 62.765625 39.6875 62.765625 39.6875 M 10.039062 13.128906 C 10.042969 13.128906 10.042969 13.128906 10.042969 13.128906 C 10.042969 13.128906 10.042969 13.128906 10.039062 13.128906 M 10.058594 13.125 C 10.058594 13.125 10.0625 13.125 10.066406 13.125 C 10.0625 13.125 10.058594 13.125 10.058594 13.125 M 10.070312 13.121094 C 10.085938 13.121094 10.097656 13.117188 10.105469 13.113281 C 10.109375 13.113281 10.105469 13.113281 10.109375 13.113281 C 10.113281 13.113281 10.121094 13.109375 10.128906 13.109375 C 10.128906 13.109375 10.132812 13.109375 10.132812 13.105469 C 10.136719 13.105469 10.144531 13.105469 10.148438 13.105469 C 10.148438 13.101562 10.152344 13.101562 10.15625 13.101562 C 10.160156 13.101562 10.164062 13.097656 10.171875 13.097656 C 10.171875 13.097656 10.171875 13.097656 10.175781 13.097656 C 10.140625 13.105469 10.105469 13.113281 10.070312 13.121094 M 10.175781 13.097656 C 10.175781 13.097656 10.179688 13.097656 10.179688 13.097656 C 10.183594 13.09375 10.1875 13.09375 10.191406 13.09375 C 10.195312 13.09375 10.199219 13.09375 10.203125 13.089844 C 10.207031 13.089844 10.210938 13.089844 10.214844 13.085938 C 10.214844 13.085938 10.21875 13.085938 10.21875 13.085938 C 10.203125 13.089844 10.191406 13.09375 10.175781 13.097656 M 10.222656 13.085938 C 10.226562 13.085938 10.234375 13.082031 10.242188 13.082031 C 10.234375 13.082031 10.226562 13.085938 10.222656 13.085938 " fill-opacity="1" fill-rule="nonzero"/><path fill="#fafdf0" d="M 10.21875 13.085938 C 10.21875 13.085938 10.21875 13.085938 10.222656 13.085938 C 10.21875 13.085938 10.21875 13.085938 10.21875 13.085938 M 10.554688 13.003906 C 20.0625 10.554688 17.351562 0.0625 33.175781 0.0625 C 17.351562 0.0625 20.0625 10.554688 10.554688 13.003906 " fill-opacity="1" fill-rule="nonzero"/><path fill="#aedd5b" d="M 54.816406 53.472656 C 54.820312 53.46875 54.824219 53.464844 54.828125 53.460938 C 55.746094 52.078125 56.648438 50.664062 57.527344 49.226562 C 57.101562 49.878906 56.675781 50.523438 56.246094 51.160156 C 58.160156 47.980469 59.941406 44.699219 61.503906 41.441406 C 66.683594 30.34375 64.660156 17.875 54.773438 15.578125 C 44.890625 13.28125 47.835938 2.558594 31.839844 2.558594 L 31.554688 2.558594 C 15.558594 2.558594 18.503906 13.28125 8.617188 15.578125 C 8.210938 15.671875 7.820312 15.785156 7.4375 15.914062 C 6.78125 15.746094 6.113281 15.585938 5.433594 15.4375 C 6.707031 14.375 8.238281 13.578125 10.039062 13.128906 C 10.042969 13.128906 10.042969 13.128906 10.042969 13.128906 C 10.046875 13.128906 10.050781 13.125 10.058594 13.125 C 10.058594 13.125 10.0625 13.125 10.066406 13.125 C 10.066406 13.125 10.070312 13.121094 10.070312 13.121094 C 10.105469 13.113281 10.140625 13.105469 10.175781 13.097656 C 10.191406 13.09375 10.203125 13.089844 10.21875 13.085938 C 10.21875 13.085938 10.21875 13.085938 10.222656 13.085938 C 10.226562 13.085938 10.234375 13.082031 10.242188 13.082031 C 10.347656 13.058594 10.453125 13.03125 10.554688 13.003906 C 20.0625 10.554688 17.351562 0.0625 33.175781 0.0625 L 33.460938 0.0625 C 49.457031 0.0625 46.511719 10.785156 56.394531 13.082031 C 62.78125 14.566406 65.886719 20.292969 65.886719 27.15625 C 65.890625 30.914062 64.957031 35.019531 63.125 38.949219 C 63.007812 39.191406 62.886719 39.4375 62.765625 39.683594 C 62.765625 39.6875 62.765625 39.6875 62.765625 39.6875 C 62.761719 39.695312 62.757812 39.703125 62.753906 39.710938 C 62.753906 39.714844 62.75 39.71875 62.75 39.722656 C 62.746094 39.726562 62.746094 39.730469 62.742188 39.734375 C 62.738281 39.742188 62.738281 39.746094 62.734375 39.753906 C 62.730469 39.757812 62.730469 39.757812 62.730469 39.757812 C 60.445312 44.425781 57.71875 49.125 54.816406 53.472656 " fill-opacity="1" fill-rule="nonzero"/><path fill="#99d13d" d="M 45.621094 65.3125 C 45.621094 64.976562 45.621094 64.640625 45.613281 64.300781 C 49.097656 60.871094 52.789062 56.273438 56.246094 51.160156 C 55.78125 51.933594 55.308594 52.699219 54.828125 53.460938 C 53.640625 55.238281 52.425781 56.957031 51.199219 58.589844 C 49.347656 61.054688 47.46875 63.328125 45.621094 65.3125 " fill-opacity="1" fill-rule="nonzero"/><path fill="#a4d856" d="M 54.828125 53.460938 C 55.308594 52.699219 55.78125 51.933594 56.246094 51.160156 C 56.675781 50.523438 57.101562 49.878906 57.527344 49.226562 C 56.648438 50.664062 55.746094 52.078125 54.828125 53.460938 " fill-opacity="1" fill-rule="nonzero"/><path fill="#91c43e" d="M 45.226562 58.597656 C 45.210938 58.476562 45.195312 58.355469 45.179688 58.238281 C 49.757812 52.863281 54.429688 45.625 57.820312 38.546875 C 62.058594 29.460938 60.402344 19.257812 52.3125 17.375 C 44.222656 15.496094 46.632812 6.722656 33.539062 6.722656 L 33.203125 6.722656 C 20.109375 6.722656 22.519531 15.496094 14.429688 17.375 C 14.035156 17.464844 13.65625 17.578125 13.292969 17.710938 C 13.113281 17.644531 12.925781 17.578125 12.742188 17.511719 C 13.1875 17.339844 13.652344 17.195312 14.140625 17.082031 C 22.355469 15.175781 19.910156 6.265625 33.199219 6.265625 L 33.4375 6.265625 C 46.726562 6.265625 44.28125 15.175781 52.496094 17.082031 C 60.707031 18.992188 62.386719 29.351562 58.085938 38.574219 C 54.636719 45.777344 49.882812 53.136719 45.226562 58.597656 M 19.453125 14.492188 C 19.925781 13.894531 20.40625 13.292969 20.941406 12.71875 C 20.460938 13.328125 19.984375 13.929688 19.453125 14.492188 " fill-opacity="1" fill-rule="nonzero"/><path fill="#f4f9d5" d="M 45.179688 58.238281 C 44.632812 53.910156 43.546875 49.433594 41.808594 45.058594 L 41.808594 31.773438 C 41.808594 31.644531 41.703125 31.539062 41.574219 31.539062 L 33.691406 31.539062 C 32.316406 29.941406 30.804688 28.402344 29.148438 26.953125 C 29.425781 25.195312 30.707031 23.691406 32.476562 23.34375 C 32.761719 23.289062 33.042969 23.265625 33.320312 23.265625 C 35.648438 23.265625 37.542969 25.164062 37.542969 27.5 L 37.542969 30.023438 C 37.542969 30.246094 37.722656 30.425781 37.945312 30.425781 L 39.457031 30.425781 C 39.679688 30.425781 39.863281 30.246094 39.863281 30.023438 L 39.863281 27.789062 C 39.863281 24.367188 37.371094 21.304688 33.972656 20.972656 C 33.753906 20.949219 33.535156 20.941406 33.316406 20.941406 C 30.480469 20.941406 28.058594 22.761719 27.15625 25.300781 C 23.777344 22.660156 19.855469 20.347656 15.332031 18.496094 C 17.144531 17.480469 18.269531 15.996094 19.453125 14.492188 C 19.984375 13.929688 20.460938 13.328125 20.941406 12.71875 C 22.925781 10.585938 25.675781 8.800781 31.582031 8.800781 L 31.8125 8.800781 C 44.90625 8.800781 42.496094 17.574219 50.585938 19.457031 C 58.679688 21.335938 60.335938 31.542969 56.09375 40.628906 C 53.394531 46.261719 49.886719 51.976562 46.257812 56.792969 C 50.445312 51.601562 54.617188 45.019531 57.714844 38.546875 C 61.953125 29.460938 60.300781 19.257812 52.210938 17.375 C 44.121094 15.496094 46.527344 6.722656 33.433594 6.722656 L 33.304688 6.722656 L 33.539062 6.722656 C 46.632812 6.722656 44.222656 15.496094 52.3125 17.375 C 60.402344 19.257812 62.058594 29.460938 57.820312 38.546875 C 54.429688 45.625 49.757812 52.863281 45.179688 58.238281 " fill-opacity="1" fill-rule="nonzero"/><path fill="#acd669" d="M 13.34375 17.726562 C 13.324219 17.722656 13.3125 17.714844 13.292969 17.710938 C 13.65625 17.578125 14.035156 17.464844 14.429688 17.375 C 22.519531 15.496094 20.109375 6.722656 33.203125 6.722656 L 33.304688 6.722656 C 25.539062 6.722656 23.226562 9.8125 20.941406 12.71875 C 20.40625 13.292969 19.925781 13.894531 19.453125 14.492188 C 18.257812 15.765625 16.8125 16.847656 14.53125 17.375 C 14.117188 17.472656 13.722656 17.589844 13.34375 17.726562 " fill-opacity="1" fill-rule="nonzero"/><path fill="#f7fbdd" d="M 46.257812 56.792969 C 49.886719 51.976562 53.394531 46.261719 56.09375 40.628906 C 60.335938 31.542969 58.679688 21.335938 50.585938 19.457031 C 42.496094 17.574219 44.90625 8.800781 31.8125 8.800781 L 31.582031 8.800781 C 25.675781 8.800781 22.925781 10.585938 20.941406 12.71875 C 23.226562 9.8125 25.539062 6.722656 33.304688 6.722656 L 33.433594 6.722656 C 46.527344 6.722656 44.121094 15.496094 52.210938 17.375 C 60.300781 19.257812 61.953125 29.460938 57.714844 38.546875 C 54.617188 45.019531 50.445312 51.601562 46.257812 56.792969 M 15.332031 18.496094 C 14.679688 18.230469 14.019531 17.972656 13.34375 17.726562 C 13.722656 17.589844 14.117188 17.472656 14.53125 17.375 C 16.8125 16.847656 18.257812 15.765625 19.453125 14.492188 C 18.269531 15.996094 17.144531 17.480469 15.332031 18.496094 " fill-opacity="1" fill-rule="nonzero"/><path fill="#f8d963" d="M 41.808594 45.058594 C 39.921875 40.324219 37.269531 35.710938 33.691406 31.539062 L 41.574219 31.539062 C 41.703125 31.539062 41.808594 31.644531 41.808594 31.773438 L 41.808594 45.058594 " fill-opacity="1" fill-rule="nonzero"/><path fill="#a1d841" d="M 39.457031 30.425781 L 37.945312 30.425781 C 37.722656 30.425781 37.542969 30.246094 37.542969 30.023438 L 37.542969 27.5 C 37.542969 25.164062 35.648438 23.265625 33.320312 23.265625 C 33.042969 23.265625 32.761719 23.289062 32.476562 23.34375 C 30.707031 23.691406 29.425781 25.195312 29.148438 26.953125 C 28.507812 26.386719 27.84375 25.835938 27.15625 25.300781 C 28.058594 22.761719 30.480469 20.941406 33.316406 20.941406 C 33.535156 20.941406 33.753906 20.949219 33.972656 20.972656 C 37.371094 21.304688 39.863281 24.367188 39.863281 27.789062 L 39.863281 30.023438 C 39.863281 30.246094 39.679688 30.425781 39.457031 30.425781 " fill-opacity="1" fill-rule="nonzero"/><path fill="#f5fad8" d="M 70.746094 43.300781 C 70.0625 43.300781 69.535156 43.558594 69.160156 44.074219 C 68.785156 44.585938 68.601562 45.300781 68.601562 46.21875 C 68.601562 48.132812 69.3125 49.085938 70.746094 49.085938 C 71.34375 49.085938 72.070312 48.9375 72.925781 48.632812 L 72.925781 50.15625 C 72.222656 50.449219 71.441406 50.597656 70.574219 50.597656 C 69.332031 50.597656 68.382812 50.21875 67.722656 49.464844 C 67.066406 48.707031 66.734375 47.621094 66.734375 46.207031 C 66.734375 45.316406 66.898438 44.535156 67.21875 43.867188 C 67.542969 43.195312 68.007812 42.683594 68.613281 42.328125 C 69.21875 41.96875 69.929688 41.789062 70.746094 41.789062 C 71.574219 41.789062 72.40625 41.992188 73.246094 42.394531 L 72.660156 43.871094 C 72.34375 43.71875 72.019531 43.585938 71.699219 43.472656 C 71.375 43.359375 71.058594 43.300781 70.746094 43.300781 " fill-opacity="1" fill-rule="nonzero"/><path fill="#f5fad8" d="M 79.664062 50.480469 L 74.742188 50.480469 L 74.742188 41.914062 L 79.664062 41.914062 L 79.664062 43.402344 L 76.554688 43.402344 L 76.554688 45.28125 L 79.449219 45.28125 L 79.449219 46.769531 L 76.554688 46.769531 L 76.554688 48.980469 L 79.664062 48.980469 L 79.664062 50.480469 " fill-opacity="1" fill-rule="nonzero"/><path fill="#f5fad8" d="M 83.257812 45.71875 L 83.84375 45.71875 C 84.417969 45.71875 84.839844 45.621094 85.113281 45.429688 C 85.382812 45.238281 85.519531 44.9375 85.519531 44.527344 C 85.519531 44.121094 85.382812 43.832031 85.101562 43.660156 C 84.824219 43.488281 84.394531 43.402344 83.808594 43.402344 L 83.257812 43.402344 Z M 83.257812 47.191406 L 83.257812 50.480469 L 81.445312 50.480469 L 81.445312 41.914062 L 83.9375 41.914062 C 85.097656 41.914062 85.957031 42.125 86.515625 42.546875 C 87.070312 42.972656 87.351562 43.617188 87.351562 44.480469 C 87.351562 44.984375 87.210938 45.429688 86.933594 45.824219 C 86.660156 46.214844 86.269531 46.523438 85.761719 46.746094 C 87.046875 48.671875 87.882812 49.917969 88.273438 50.480469 L 86.265625 50.480469 L 84.222656 47.191406 L 83.257812 47.191406 " fill-opacity="1" fill-rule="nonzero"/><path fill="#f5fad8" d="M 92.644531 50.480469 L 90.832031 50.480469 L 90.832031 43.425781 L 88.511719 43.425781 L 88.511719 41.914062 L 94.964844 41.914062 L 94.964844 43.425781 L 92.644531 43.425781 L 92.644531 50.480469 " fill-opacity="1" fill-rule="nonzero"/><path fill="#f5fad8" d="M 96.28125 50.480469 L 96.28125 41.914062 L 98.09375 41.914062 L 98.09375 50.480469 L 96.28125 50.480469 " fill-opacity="1" fill-rule="nonzero"/><path fill="#f5fad8" d="M 102.027344 50.480469 L 100.242188 50.480469 L 100.242188 41.914062 L 105.140625 41.914062 L 105.140625 43.402344 L 102.027344 43.402344 L 102.027344 45.609375 L 104.925781 45.609375 L 104.925781 47.09375 L 102.027344 47.09375 L 102.027344 50.480469 " fill-opacity="1" fill-rule="nonzero"/><path fill="#f5fad8" d="M 106.8125 50.480469 L 106.8125 41.914062 L 108.625 41.914062 L 108.625 50.480469 L 106.8125 50.480469 " fill-opacity="1" fill-rule="nonzero"/><path fill="#f5fad8" d="M 114.40625 43.300781 C 113.722656 43.300781 113.195312 43.558594 112.820312 44.074219 C 112.449219 44.585938 112.261719 45.300781 112.261719 46.21875 C 112.261719 48.132812 112.976562 49.085938 114.40625 49.085938 C 115.007812 49.085938 115.734375 48.9375 116.585938 48.632812 L 116.585938 50.15625 C 115.886719 50.449219 115.101562 50.597656 114.238281 50.597656 C 112.992188 50.597656 112.042969 50.21875 111.386719 49.464844 C 110.726562 48.707031 110.394531 47.621094 110.394531 46.207031 C 110.394531 45.316406 110.558594 44.535156 110.882812 43.867188 C 111.203125 43.195312 111.671875 42.683594 112.277344 42.328125 C 112.878906 41.96875 113.589844 41.789062 114.40625 41.789062 C 115.234375 41.789062 116.070312 41.992188 116.90625 42.394531 L 116.324219 43.871094 C 116.003906 43.71875 115.679688 43.585938 115.359375 43.472656 C 115.035156 43.359375 114.71875 43.300781 114.40625 43.300781 " fill-opacity="1" fill-rule="nonzero"/><path fill="#f5fad8" d="M 122.585938 46.917969 C 122.011719 45.070312 121.6875 44.023438 121.617188 43.78125 C 121.546875 43.539062 121.492188 43.347656 121.460938 43.207031 C 121.332031 43.707031 120.964844 44.945312 120.355469 46.917969 Z M 123.636719 50.480469 L 123.015625 48.441406 L 119.902344 48.441406 L 119.28125 50.480469 L 117.328125 50.480469 L 120.34375 41.878906 L 122.558594 41.878906 L 125.589844 50.480469 L 123.636719 50.480469 " fill-opacity="1" fill-rule="nonzero"/><path fill="#f5fad8" d="M 129.957031 50.480469 L 128.148438 50.480469 L 128.148438 43.425781 L 125.828125 43.425781 L 125.828125 41.914062 L 132.28125 41.914062 L 132.28125 43.425781 L 129.957031 43.425781 L 129.957031 50.480469 " fill-opacity="1" fill-rule="nonzero"/><path fill="#f5fad8" d="M 138.515625 50.480469 L 133.59375 50.480469 L 133.59375 41.914062 L 138.515625 41.914062 L 138.515625 43.402344 L 135.40625 43.402344 L 135.40625 45.28125 L 138.300781 45.28125 L 138.300781 46.769531 L 135.40625 46.769531 L 135.40625 48.980469 L 138.515625 48.980469 L 138.515625 50.480469 " fill-opacity="1" fill-rule="nonzero"/><path fill="#f5fad8" d="M 95.808594 32.832031 C 95.808594 34.289062 95.285156 35.4375 94.238281 36.277344 C 93.195312 37.113281 91.738281 37.535156 89.875 37.535156 C 88.15625 37.535156 86.636719 37.210938 85.3125 36.5625 L 85.3125 33.382812 C 86.402344 33.871094 87.320312 34.210938 88.070312 34.410156 C 88.824219 34.609375 89.511719 34.707031 90.136719 34.707031 C 90.886719 34.707031 91.460938 34.5625 91.859375 34.277344 C 92.261719 33.992188 92.460938 33.5625 92.460938 32.996094 C 92.460938 32.679688 92.371094 32.402344 92.195312 32.152344 C 92.019531 31.90625 91.761719 31.667969 91.421875 31.441406 C 91.078125 31.214844 90.382812 30.847656 89.332031 30.347656 C 88.347656 29.882812 87.613281 29.4375 87.121094 29.011719 C 86.628906 28.585938 86.234375 28.085938 85.941406 27.519531 C 85.648438 26.953125 85.5 26.289062 85.5 25.535156 C 85.5 24.105469 85.984375 22.984375 86.949219 22.164062 C 87.914062 21.347656 89.25 20.941406 90.953125 20.941406 C 91.789062 20.941406 92.585938 21.039062 93.347656 21.238281 C 94.105469 21.4375 94.902344 21.71875 95.730469 22.078125 L 94.628906 24.738281 C 93.769531 24.382812 93.0625 24.140625 92.5 24 C 91.9375 23.859375 91.386719 23.789062 90.84375 23.789062 C 90.195312 23.789062 89.699219 23.941406 89.355469 24.242188 C 89.007812 24.542969 88.839844 24.9375 88.839844 25.421875 C 88.839844 25.722656 88.90625 25.988281 89.046875 26.210938 C 89.1875 26.4375 89.40625 26.652344 89.714844 26.863281 C 90.015625 27.074219 90.738281 27.449219 91.878906 27.996094 C 93.382812 28.714844 94.414062 29.441406 94.972656 30.164062 C 95.53125 30.890625 95.808594 31.777344 95.808594 32.832031 " fill-opacity="1" fill-rule="nonzero"/><path fill="#f5fad8" d="M 108.230469 32.832031 C 108.230469 34.289062 107.707031 35.4375 106.660156 36.277344 C 105.617188 37.113281 104.160156 37.535156 102.292969 37.535156 C 100.578125 37.535156 99.054688 37.210938 97.734375 36.5625 L 97.734375 33.382812 C 98.820312 33.871094 99.742188 34.210938 100.492188 34.410156 C 101.246094 34.609375 101.933594 34.707031 102.558594 34.707031 C 103.308594 34.707031 103.882812 34.5625 104.28125 34.277344 C 104.683594 33.992188 104.882812 33.5625 104.882812 32.996094 C 104.882812 32.679688 104.792969 32.402344 104.617188 32.152344 C 104.441406 31.90625 104.183594 31.667969 103.839844 31.441406 C 103.5 31.214844 102.804688 30.847656 101.753906 30.347656 C 100.773438 29.882812 100.035156 29.4375 99.542969 29.011719 C 99.050781 28.585938 98.65625 28.085938 98.363281 27.519531 C 98.070312 26.953125 97.921875 26.289062 97.921875 25.535156 C 97.921875 24.105469 98.40625 22.984375 99.371094 22.164062 C 100.335938 21.347656 101.671875 20.941406 103.375 20.941406 C 104.210938 20.941406 105.007812 21.039062 105.769531 21.238281 C 106.527344 21.4375 107.324219 21.71875 108.152344 22.078125 L 107.050781 24.738281 C 106.191406 24.382812 105.484375 24.140625 104.921875 24 C 104.359375 23.859375 103.808594 23.789062 103.265625 23.789062 C 102.617188 23.789062 102.121094 23.941406 101.777344 24.242188 C 101.433594 24.542969 101.257812 24.9375 101.257812 25.421875 C 101.257812 25.722656 101.328125 25.988281 101.46875 26.210938 C 101.609375 26.4375 101.832031 26.652344 102.136719 26.863281 C 102.4375 27.074219 103.164062 27.449219 104.300781 27.996094 C 105.804688 28.714844 106.835938 29.441406 107.394531 30.164062 C 107.953125 30.890625 108.230469 31.777344 108.230469 32.832031 " fill-opacity="1" fill-rule="nonzero"/><path fill="#f5fad8" d="M 111.148438 37.3125 L 111.148438 21.171875 L 114.5625 21.171875 L 114.5625 34.488281 L 121.09375 34.488281 L 121.09375 37.3125 L 111.148438 37.3125 " fill-opacity="1" fill-rule="nonzero"/><path fill="#f5fad8" d="M 80.824219 30.722656 L 72.390625 30.722656 C 71.984375 30.722656 71.652344 30.390625 71.652344 29.984375 C 71.652344 29.574219 71.984375 29.242188 72.390625 29.242188 L 80.824219 29.242188 C 81.234375 29.242188 81.5625 29.574219 81.5625 29.984375 C 81.5625 30.390625 81.234375 30.722656 80.824219 30.722656 " fill-opacity="1" fill-rule="nonzero"/><path fill="#f5fad8" d="M 134.015625 30.722656 L 125.582031 30.722656 C 125.171875 30.722656 124.84375 30.390625 124.84375 29.984375 C 124.84375 29.574219 125.171875 29.242188 125.582031 29.242188 L 134.015625 29.242188 C 134.421875 29.242188 134.753906 29.574219 134.753906 29.984375 C 134.753906 30.390625 134.421875 30.722656 134.015625 30.722656 " fill-opacity="1" fill-rule="nonzero"/></svg>