<svg width="512" height="512" viewBox="0 0 512 512" fill="none" xmlns="http://www.w3.org/2000/svg">
<circle cx="256" cy="256" r="256" fill="#002F6D"/>
<path d="M239.601 458.91C235.758 462.783 230.595 464.915 225.103 464.948C219.611 464.964 214.464 462.897 210.572 459.056L184.083 432.917C198.845 416.82 198.515 392.015 182.763 376.471C167.028 360.96 141.891 360.619 125.562 375.202L99.0563 349.046C95.0977 345.156 92.937 339.899 92.937 334.3C92.937 328.718 95.0647 323.558 98.9243 319.668L286.114 132.022C289.941 128.165 295.12 126.032 300.612 126.016C306.105 126 311.251 128.083 315.143 131.908L341.633 158.064C326.871 174.144 327.201 198.965 342.952 214.509C358.704 229.987 383.841 230.345 400.17 215.778L426.676 241.934C434.494 249.649 434.56 263.5 426.807 271.312L239.601 458.91ZM253.885 305.313L264.128 337.832L284.069 310.033L318.574 310.472L297.94 283.177L309.024 250.918L276.333 261.856L248.656 241.494L249.102 275.544L220.914 295.205L253.885 305.313ZM119.905 290.062L118.42 106.257C118.371 101.83 120.119 97.6308 123.286 94.4732C126.469 91.3157 130.692 89.5741 135.194 89.5579L165.956 89.5741C166.846 107.364 181.641 121.573 199.933 121.589C218.192 121.557 232.987 107.364 233.894 89.5579H264.672C273.744 89.5579 281.925 97.5657 282.024 106.55L282.189 127.383L221.458 188.256L214.201 187.214L201.665 162.149L189.13 187.214L161.09 191.234L181.378 210.749L177.65 232.185L119.905 290.062Z" fill="white"/>
</svg>
