<svg xmlns="http://www.w3.org/2000/svg" xmlns:xlink="http://www.w3.org/1999/xlink" width="121" zoomAndPan="magnify" viewBox="0 0 90.75 78.749999" height="105" preserveAspectRatio="xMidYMid meet" version="1.0"><defs><clipPath id="67608fb647"><path d="M 0.0195312 0 L 90.480469 0 L 90.480469 78.5 L 0.0195312 78.5 Z M 0.0195312 0 " clip-rule="nonzero"/></clipPath></defs><g clip-path="url(#67608fb647)"><path fill="#ff9202" d="M 10.570312 30.074219 C 10.371094 30.074219 10.179688 30.113281 9.996094 30.191406 C 9.808594 30.265625 9.648438 30.375 9.507812 30.515625 C 9.363281 30.65625 9.257812 30.820312 9.179688 31.003906 C 9.105469 31.1875 9.066406 31.378906 9.066406 31.578125 L 9.066406 43.609375 C 9.066406 43.808594 9.105469 44 9.179688 44.183594 C 9.257812 44.371094 9.363281 44.53125 9.507812 44.671875 C 9.648438 44.816406 9.808594 44.921875 9.996094 45 C 10.179688 45.074219 10.371094 45.113281 10.570312 45.113281 L 25.609375 45.113281 C 25.808594 45.113281 26 45.074219 26.183594 45 C 26.367188 44.921875 26.53125 44.816406 26.671875 44.671875 C 26.8125 44.53125 26.921875 44.371094 26.996094 44.183594 C 27.074219 44 27.113281 43.808594 27.113281 43.609375 L 27.113281 31.578125 C 27.113281 31.378906 27.074219 31.1875 26.996094 31.003906 C 26.921875 30.820312 26.8125 30.65625 26.671875 30.515625 C 26.53125 30.375 26.367188 30.265625 26.183594 30.191406 C 26 30.113281 25.808594 30.074219 25.609375 30.074219 Z M 24.105469 42.105469 L 12.074219 42.105469 L 12.074219 33.082031 L 24.105469 33.082031 Z M 43.652344 51.128906 L 7.5625 51.128906 C 7.265625 51.128906 6.972656 51.097656 6.683594 51.042969 C 6.390625 50.984375 6.109375 50.898438 5.835938 50.785156 C 5.5625 50.671875 5.304688 50.53125 5.058594 50.367188 C 4.8125 50.203125 4.582031 50.015625 4.375 49.804688 C 4.164062 49.597656 3.976562 49.367188 3.8125 49.121094 C 3.648438 48.875 3.507812 48.617188 3.394531 48.34375 C 3.28125 48.070312 3.195312 47.789062 3.136719 47.496094 C 3.082031 47.207031 3.050781 46.914062 3.050781 46.617188 L 3.050781 24.0625 L 75.234375 24.0625 L 75.234375 28.570312 C 75.234375 28.769531 75.269531 28.964844 75.347656 29.148438 C 75.421875 29.332031 75.53125 29.496094 75.671875 29.636719 C 75.8125 29.777344 75.976562 29.886719 76.160156 29.960938 C 76.34375 30.039062 76.535156 30.074219 76.738281 30.074219 C 76.9375 30.074219 77.128906 30.039062 77.3125 29.960938 C 77.496094 29.886719 77.660156 29.777344 77.800781 29.636719 C 77.941406 29.496094 78.050781 29.332031 78.125 29.148438 C 78.203125 28.964844 78.242188 28.769531 78.242188 28.570312 L 78.242188 7.519531 C 78.238281 7.027344 78.191406 6.535156 78.09375 6.050781 C 77.996094 5.570312 77.855469 5.097656 77.664062 4.644531 C 77.476562 4.1875 77.246094 3.753906 76.96875 3.34375 C 76.695312 2.933594 76.382812 2.554688 76.035156 2.203125 C 75.6875 1.855469 75.308594 1.542969 74.898438 1.269531 C 74.484375 0.996094 74.054688 0.765625 73.597656 0.574219 C 73.140625 0.386719 72.671875 0.242188 72.1875 0.144531 C 71.703125 0.0507812 71.214844 0 70.722656 0 L 7.5625 0 C 7.070312 0 6.578125 0.0507812 6.097656 0.144531 C 5.613281 0.242188 5.140625 0.386719 4.6875 0.574219 C 4.230469 0.765625 3.796875 0.996094 3.386719 1.269531 C 2.976562 1.542969 2.597656 1.855469 2.25 2.203125 C 1.898438 2.554688 1.585938 2.933594 1.3125 3.34375 C 1.039062 3.753906 0.808594 4.1875 0.617188 4.644531 C 0.429688 5.097656 0.285156 5.570312 0.1875 6.050781 C 0.09375 6.535156 0.0429688 7.027344 0.0429688 7.519531 L 0.0429688 46.617188 C 0.0429688 47.109375 0.09375 47.601562 0.1875 48.082031 C 0.285156 48.566406 0.429688 49.039062 0.617188 49.492188 C 0.808594 49.949219 1.039062 50.382812 1.3125 50.792969 C 1.585938 51.203125 1.898438 51.582031 2.25 51.929688 C 2.597656 52.28125 2.976562 52.59375 3.386719 52.867188 C 3.796875 53.140625 4.230469 53.371094 4.6875 53.5625 C 5.140625 53.75 5.613281 53.894531 6.097656 53.992188 C 6.578125 54.085938 7.070312 54.136719 7.5625 54.136719 L 43.652344 54.136719 C 43.851562 54.136719 44.042969 54.097656 44.230469 54.023438 C 44.414062 53.945312 44.574219 53.835938 44.714844 53.695312 C 44.859375 53.554688 44.964844 53.390625 45.042969 53.207031 C 45.117188 53.023438 45.15625 52.832031 45.15625 52.632812 C 45.15625 52.433594 45.117188 52.242188 45.042969 52.058594 C 44.964844 51.871094 44.859375 51.710938 44.714844 51.570312 C 44.574219 51.429688 44.414062 51.320312 44.230469 51.242188 C 44.042969 51.167969 43.851562 51.128906 43.652344 51.128906 Z M 3.050781 21.054688 L 3.050781 12.03125 L 75.234375 12.03125 L 75.234375 21.054688 Z M 7.5625 3.007812 L 70.722656 3.007812 C 71.015625 3.007812 71.3125 3.035156 71.601562 3.09375 C 71.890625 3.152344 72.171875 3.238281 72.445312 3.351562 C 72.71875 3.464844 72.980469 3.605469 73.226562 3.769531 C 73.472656 3.933594 73.699219 4.121094 73.910156 4.332031 C 74.121094 4.539062 74.304688 4.765625 74.472656 5.015625 C 74.636719 5.261719 74.773438 5.519531 74.886719 5.792969 C 75 6.066406 75.085938 6.347656 75.144531 6.640625 C 75.203125 6.929688 75.230469 7.222656 75.234375 7.519531 L 75.234375 9.023438 L 3.050781 9.023438 L 3.050781 7.519531 C 3.050781 7.222656 3.082031 6.929688 3.136719 6.640625 C 3.195312 6.347656 3.28125 6.066406 3.394531 5.792969 C 3.507812 5.519531 3.648438 5.261719 3.8125 5.015625 C 3.976562 4.765625 4.164062 4.539062 4.375 4.332031 C 4.582031 4.121094 4.8125 3.933594 5.058594 3.769531 C 5.304688 3.605469 5.5625 3.464844 5.835938 3.351562 C 6.109375 3.238281 6.390625 3.152344 6.683594 3.09375 C 6.972656 3.035156 7.265625 3.007812 7.5625 3.007812 Z M 88.765625 36.089844 C 85.449219 36.039062 82.199219 35.523438 79.027344 34.550781 C 75.855469 33.574219 72.878906 32.179688 70.101562 30.363281 C 69.835938 30.171875 69.542969 30.078125 69.21875 30.078125 C 68.894531 30.078125 68.597656 30.171875 68.335938 30.363281 C 65.558594 32.179688 62.582031 33.574219 59.40625 34.550781 C 56.234375 35.523438 52.988281 36.039062 49.667969 36.089844 C 49.46875 36.089844 49.277344 36.128906 49.09375 36.207031 C 48.910156 36.28125 48.746094 36.390625 48.605469 36.53125 C 48.464844 36.671875 48.355469 36.835938 48.277344 37.019531 C 48.203125 37.203125 48.164062 37.394531 48.164062 37.59375 L 48.164062 52.632812 C 48.164062 71.234375 68.546875 78.058594 68.753906 78.125 C 69.0625 78.222656 69.371094 78.222656 69.679688 78.125 C 69.886719 78.058594 90.269531 71.234375 90.269531 52.632812 L 90.269531 37.59375 C 90.269531 37.394531 90.234375 37.203125 90.15625 37.019531 C 90.082031 36.835938 89.972656 36.671875 89.832031 36.53125 C 89.6875 36.390625 89.527344 36.28125 89.34375 36.207031 C 89.15625 36.128906 88.964844 36.089844 88.765625 36.089844 Z M 87.261719 52.632812 C 87.261719 67.554688 72.089844 74.007812 69.21875 75.09375 C 66.34375 74.007812 51.171875 67.554688 51.171875 52.632812 L 51.171875 39.066406 C 54.371094 38.890625 57.496094 38.324219 60.554688 37.363281 C 63.609375 36.402344 66.496094 35.078125 69.21875 33.386719 C 71.9375 35.078125 74.828125 36.402344 77.882812 37.363281 C 80.9375 38.324219 84.066406 38.890625 87.261719 39.066406 Z M 66.210938 59.527344 L 78.679688 47.058594 C 78.820312 46.917969 78.984375 46.8125 79.167969 46.734375 C 79.351562 46.660156 79.542969 46.625 79.742188 46.625 C 79.941406 46.625 80.132812 46.664062 80.316406 46.738281 C 80.5 46.816406 80.660156 46.925781 80.800781 47.066406 C 80.941406 47.207031 81.050781 47.367188 81.125 47.550781 C 81.203125 47.734375 81.242188 47.925781 81.242188 48.125 C 81.242188 48.320312 81.203125 48.511719 81.128906 48.695312 C 81.054688 48.878906 80.945312 49.042969 80.808594 49.183594 L 67.273438 62.71875 C 67.132812 62.859375 66.96875 62.96875 66.785156 63.042969 C 66.601562 63.121094 66.410156 63.160156 66.210938 63.160156 C 66.011719 63.160156 65.820312 63.121094 65.632812 63.042969 C 65.449219 62.96875 65.289062 62.859375 65.148438 62.71875 L 57.628906 55.199219 C 57.488281 55.058594 57.382812 54.894531 57.304688 54.710938 C 57.230469 54.527344 57.191406 54.335938 57.195312 54.136719 C 57.195312 53.941406 57.234375 53.75 57.308594 53.566406 C 57.386719 53.382812 57.492188 53.21875 57.632812 53.078125 C 57.773438 52.9375 57.9375 52.832031 58.121094 52.753906 C 58.304688 52.679688 58.496094 52.640625 58.691406 52.640625 C 58.890625 52.640625 59.082031 52.675781 59.265625 52.75 C 59.449219 52.828125 59.613281 52.933594 59.753906 53.074219 Z M 66.210938 59.527344 " fill-opacity="1" fill-rule="nonzero"/><path fill="#ff9202" d="M 10.570312 30.074219 C 10.371094 30.074219 10.179688 30.113281 9.996094 30.191406 C 9.808594 30.265625 9.648438 30.375 9.507812 30.515625 C 9.363281 30.65625 9.257812 30.820312 9.179688 31.003906 C 9.105469 31.1875 9.066406 31.378906 9.066406 31.578125 L 9.066406 43.609375 C 9.066406 43.808594 9.105469 44 9.179688 44.183594 C 9.257812 44.371094 9.363281 44.53125 9.507812 44.671875 C 9.648438 44.816406 9.808594 44.921875 9.996094 45 C 10.179688 45.074219 10.371094 45.113281 10.570312 45.113281 L 25.609375 45.113281 C 25.808594 45.113281 26 45.074219 26.183594 45 C 26.367188 44.921875 26.53125 44.816406 26.671875 44.671875 C 26.8125 44.53125 26.921875 44.371094 26.996094 44.183594 C 27.074219 44 27.113281 43.808594 27.113281 43.609375 L 27.113281 31.578125 C 27.113281 31.378906 27.074219 31.1875 26.996094 31.003906 C 26.921875 30.820312 26.8125 30.65625 26.671875 30.515625 C 26.53125 30.375 26.367188 30.265625 26.183594 30.191406 C 26 30.113281 25.808594 30.074219 25.609375 30.074219 Z M 24.105469 42.105469 L 12.074219 42.105469 L 12.074219 33.082031 L 24.105469 33.082031 Z M 43.652344 51.128906 L 7.5625 51.128906 C 7.265625 51.128906 6.972656 51.097656 6.683594 51.042969 C 6.390625 50.984375 6.109375 50.898438 5.835938 50.785156 C 5.5625 50.671875 5.304688 50.53125 5.058594 50.367188 C 4.8125 50.203125 4.582031 50.015625 4.375 49.804688 C 4.164062 49.597656 3.976562 49.367188 3.8125 49.121094 C 3.648438 48.875 3.507812 48.617188 3.394531 48.34375 C 3.28125 48.070312 3.195312 47.789062 3.136719 47.496094 C 3.082031 47.207031 3.050781 46.914062 3.050781 46.617188 L 3.050781 24.0625 L 75.234375 24.0625 L 75.234375 28.570312 C 75.234375 28.769531 75.269531 28.964844 75.347656 29.148438 C 75.421875 29.332031 75.53125 29.496094 75.671875 29.636719 C 75.8125 29.777344 75.976562 29.886719 76.160156 29.960938 C 76.34375 30.039062 76.535156 30.074219 76.738281 30.074219 C 76.9375 30.074219 77.128906 30.039062 77.3125 29.960938 C 77.496094 29.886719 77.660156 29.777344 77.800781 29.636719 C 77.941406 29.496094 78.050781 29.332031 78.125 29.148438 C 78.203125 28.964844 78.242188 28.769531 78.242188 28.570312 L 78.242188 7.519531 C 78.238281 7.027344 78.191406 6.535156 78.09375 6.050781 C 77.996094 5.570312 77.855469 5.097656 77.664062 4.644531 C 77.476562 4.1875 77.246094 3.753906 76.96875 3.34375 C 76.695312 2.933594 76.382812 2.554688 76.035156 2.203125 C 75.6875 1.855469 75.308594 1.542969 74.898438 1.269531 C 74.484375 0.996094 74.054688 0.765625 73.597656 0.574219 C 73.140625 0.386719 72.671875 0.242188 72.1875 0.144531 C 71.703125 0.0507812 71.214844 0 70.722656 0 L 7.5625 0 C 7.070312 0 6.578125 0.0507812 6.097656 0.144531 C 5.613281 0.242188 5.140625 0.386719 4.6875 0.574219 C 4.230469 0.765625 3.796875 0.996094 3.386719 1.269531 C 2.976562 1.542969 2.597656 1.855469 2.25 2.203125 C 1.898438 2.554688 1.585938 2.933594 1.3125 3.34375 C 1.039062 3.753906 0.808594 4.1875 0.617188 4.644531 C 0.429688 5.097656 0.285156 5.570312 0.1875 6.050781 C 0.09375 6.535156 0.0429688 7.027344 0.0429688 7.519531 L 0.0429688 46.617188 C 0.0429688 47.109375 0.09375 47.601562 0.1875 48.082031 C 0.285156 48.566406 0.429688 49.039062 0.617188 49.492188 C 0.808594 49.949219 1.039062 50.382812 1.3125 50.792969 C 1.585938 51.203125 1.898438 51.582031 2.25 51.929688 C 2.597656 52.28125 2.976562 52.59375 3.386719 52.867188 C 3.796875 53.140625 4.230469 53.371094 4.6875 53.5625 C 5.140625 53.75 5.613281 53.894531 6.097656 53.992188 C 6.578125 54.085938 7.070312 54.136719 7.5625 54.136719 L 43.652344 54.136719 C 43.851562 54.136719 44.042969 54.097656 44.230469 54.023438 C 44.414062 53.945312 44.574219 53.835938 44.714844 53.695312 C 44.859375 53.554688 44.964844 53.390625 45.042969 53.207031 C 45.117188 53.023438 45.15625 52.832031 45.15625 52.632812 C 45.15625 52.433594 45.117188 52.242188 45.042969 52.058594 C 44.964844 51.871094 44.859375 51.710938 44.714844 51.570312 C 44.574219 51.429688 44.414062 51.320312 44.230469 51.242188 C 44.042969 51.167969 43.851562 51.128906 43.652344 51.128906 Z M 3.050781 21.054688 L 3.050781 12.03125 L 75.234375 12.03125 L 75.234375 21.054688 Z M 7.5625 3.007812 L 70.722656 3.007812 C 71.015625 3.007812 71.3125 3.035156 71.601562 3.09375 C 71.890625 3.152344 72.171875 3.238281 72.445312 3.351562 C 72.71875 3.464844 72.980469 3.605469 73.226562 3.769531 C 73.472656 3.933594 73.699219 4.121094 73.910156 4.332031 C 74.121094 4.539062 74.304688 4.765625 74.472656 5.015625 C 74.636719 5.261719 74.773438 5.519531 74.886719 5.792969 C 75 6.066406 75.085938 6.347656 75.144531 6.640625 C 75.203125 6.929688 75.230469 7.222656 75.234375 7.519531 L 75.234375 9.023438 L 3.050781 9.023438 L 3.050781 7.519531 C 3.050781 7.222656 3.082031 6.929688 3.136719 6.640625 C 3.195312 6.347656 3.28125 6.066406 3.394531 5.792969 C 3.507812 5.519531 3.648438 5.261719 3.8125 5.015625 C 3.976562 4.765625 4.164062 4.539062 4.375 4.332031 C 4.582031 4.121094 4.8125 3.933594 5.058594 3.769531 C 5.304688 3.605469 5.5625 3.464844 5.835938 3.351562 C 6.109375 3.238281 6.390625 3.152344 6.683594 3.09375 C 6.972656 3.035156 7.265625 3.007812 7.5625 3.007812 Z M 88.765625 36.089844 C 85.449219 36.039062 82.199219 35.523438 79.027344 34.550781 C 75.855469 33.574219 72.878906 32.179688 70.101562 30.363281 C 69.835938 30.171875 69.542969 30.078125 69.21875 30.078125 C 68.894531 30.078125 68.597656 30.171875 68.335938 30.363281 C 65.558594 32.179688 62.582031 33.574219 59.40625 34.550781 C 56.234375 35.523438 52.988281 36.039062 49.667969 36.089844 C 49.46875 36.089844 49.277344 36.128906 49.09375 36.207031 C 48.910156 36.28125 48.746094 36.390625 48.605469 36.53125 C 48.464844 36.671875 48.355469 36.835938 48.277344 37.019531 C 48.203125 37.203125 48.164062 37.394531 48.164062 37.59375 L 48.164062 52.632812 C 48.164062 71.234375 68.546875 78.058594 68.753906 78.125 C 69.0625 78.222656 69.371094 78.222656 69.679688 78.125 C 69.886719 78.058594 90.269531 71.234375 90.269531 52.632812 L 90.269531 37.59375 C 90.269531 37.394531 90.234375 37.203125 90.15625 37.019531 C 90.082031 36.835938 89.972656 36.671875 89.832031 36.53125 C 89.6875 36.390625 89.527344 36.28125 89.34375 36.207031 C 89.15625 36.128906 88.964844 36.089844 88.765625 36.089844 Z M 87.261719 52.632812 C 87.261719 67.554688 72.089844 74.007812 69.21875 75.09375 C 66.34375 74.007812 51.171875 67.554688 51.171875 52.632812 L 51.171875 39.066406 C 54.371094 38.890625 57.496094 38.324219 60.554688 37.363281 C 63.609375 36.402344 66.496094 35.078125 69.21875 33.386719 C 71.9375 35.078125 74.828125 36.402344 77.882812 37.363281 C 80.9375 38.324219 84.066406 38.890625 87.261719 39.066406 Z M 66.210938 59.527344 L 78.679688 47.058594 C 78.820312 46.917969 78.984375 46.8125 79.167969 46.734375 C 79.351562 46.660156 79.542969 46.625 79.742188 46.625 C 79.941406 46.625 80.132812 46.664062 80.316406 46.738281 C 80.5 46.816406 80.660156 46.925781 80.800781 47.066406 C 80.941406 47.207031 81.050781 47.367188 81.125 47.550781 C 81.203125 47.734375 81.242188 47.925781 81.242188 48.125 C 81.242188 48.320312 81.203125 48.511719 81.128906 48.695312 C 81.054688 48.878906 80.945312 49.042969 80.808594 49.183594 L 67.273438 62.71875 C 67.132812 62.859375 66.96875 62.96875 66.785156 63.042969 C 66.601562 63.121094 66.410156 63.160156 66.210938 63.160156 C 66.011719 63.160156 65.820312 63.121094 65.632812 63.042969 C 65.449219 62.96875 65.289062 62.859375 65.148438 62.71875 L 57.628906 55.199219 C 57.488281 55.058594 57.382812 54.894531 57.304688 54.710938 C 57.230469 54.527344 57.191406 54.335938 57.195312 54.136719 C 57.195312 53.941406 57.234375 53.75 57.308594 53.566406 C 57.386719 53.382812 57.492188 53.21875 57.632812 53.078125 C 57.773438 52.9375 57.9375 52.832031 58.121094 52.753906 C 58.304688 52.679688 58.496094 52.640625 58.691406 52.640625 C 58.890625 52.640625 59.082031 52.675781 59.265625 52.75 C 59.449219 52.828125 59.613281 52.933594 59.753906 53.074219 Z M 66.210938 59.527344 " fill-opacity="1" fill-rule="nonzero"/></g></svg>