<svg width="602" height="171" viewBox="0 0 602 171" fill="none" xmlns="http://www.w3.org/2000/svg">
<path d="M560.822 90.4408C560.822 86.1447 561.686 82.3917 563.414 79.182C565.192 75.9722 567.636 73.5032 570.747 71.7749C573.908 70.0465 577.512 69.1824 581.562 69.1824C586.747 69.1824 591.067 70.5403 594.524 73.2563C598.03 75.9722 600.326 79.7992 601.413 84.7373H587.932C586.796 81.5769 584.599 79.9968 581.339 79.9968C579.019 79.9968 577.167 80.9103 575.784 82.7374C574.402 84.5151 573.71 87.0829 573.71 90.4408C573.71 93.7987 574.402 96.3912 575.784 98.2183C577.167 99.996 579.019 100.885 581.339 100.885C584.599 100.885 591.364 96.1603 592.5 92.9999L601.413 96.1443C600.326 100.984 598.03 104.786 594.524 107.551C591.018 110.317 586.697 111.699 581.562 111.699C577.512 111.699 573.908 110.835 570.747 109.107C567.636 107.378 565.192 104.909 563.414 101.7C561.686 98.4899 560.822 94.7369 560.822 90.4408Z" fill="#FF9202"/>
<path d="M538.613 69.3306C543.452 69.3306 547.304 70.9108 550.168 74.0711C553.081 77.1821 554.538 81.4782 554.538 86.9595V111.107H541.946V88.6631C541.946 85.8978 541.23 83.7498 539.798 82.2189C538.366 80.6881 536.44 79.9227 534.021 79.9227C531.601 79.9227 529.675 80.6881 528.243 82.2189C526.811 83.7498 526.095 85.8978 526.095 88.6631V111.107H513.429V69.775H526.095V75.2563C527.379 73.4292 529.107 71.9971 531.28 70.9601C533.453 69.8738 535.897 69.3306 538.613 69.3306Z" fill="#FF9202"/>
<path d="M508.848 69.7749L482.924 130.735H469.294L478.776 109.699L461.961 69.7749H476.109L485.664 95.6257L495.145 69.7749H508.848Z" fill="#FF9202"/>
<path d="M439.871 111.625C436.069 111.625 432.662 111.008 429.649 109.774C426.637 108.539 424.217 106.712 422.39 104.292C420.613 101.873 419.674 98.9592 419.576 95.5519H433.057C433.254 97.4777 433.921 98.9592 435.057 99.9962C436.192 100.984 437.674 101.478 439.501 101.478C441.377 101.478 442.859 101.058 443.945 100.218C445.031 99.3295 445.575 98.1197 445.575 96.5889C445.575 95.305 445.13 94.2433 444.241 93.4038C443.402 92.5643 442.34 91.873 441.056 91.3298C439.822 90.7866 438.044 90.1694 435.723 89.478C432.365 88.4411 429.625 87.4041 427.501 86.3671C425.378 85.3301 423.551 83.7993 422.02 81.7746C420.489 79.75 419.724 77.1082 419.724 73.849C419.724 69.0097 421.477 65.2321 424.983 62.5161C428.489 59.7508 433.057 58.3682 438.686 58.3682C444.414 58.3682 449.031 59.7508 452.537 62.5161C456.043 65.2321 457.92 69.0344 458.167 73.9231H444.464C444.365 72.2442 443.748 70.9356 442.612 69.9973C441.476 69.0097 440.019 68.5159 438.242 68.5159C436.711 68.5159 435.476 68.9356 434.538 69.7751C433.6 70.5652 433.131 71.7257 433.131 73.2565C433.131 74.9354 433.921 76.244 435.501 77.1822C437.081 78.1205 439.55 79.1328 442.908 80.2192C446.266 81.3549 448.982 82.4413 451.056 83.4783C453.179 84.5153 455.006 86.0214 456.537 87.9966C458.068 89.9719 458.833 92.515 458.833 95.626C458.833 98.5888 458.068 101.28 456.537 103.7C455.056 106.119 452.883 108.045 450.019 109.477C447.155 110.909 443.772 111.625 439.871 111.625Z" fill="#FF9202"/>
<path d="M400.073 100.665V111.405H393.629C389.036 111.405 385.456 110.294 382.889 108.072C380.321 105.801 379.037 102.122 379.037 97.0356V80.5918H374V70.0737H379.037V60H391.703V70.0737H399.999V80.5918H391.703V97.1837C391.703 98.4182 391.999 99.3071 392.592 99.8503C393.184 100.393 394.172 100.665 395.555 100.665H400.073Z" fill="white"/>
<path d="M369.48 89.5918C369.48 90.7769 369.406 92.0114 369.258 93.2953H340.592C340.79 95.8631 341.604 97.8384 343.036 99.221C344.518 100.554 346.32 101.221 348.444 101.221C351.604 101.221 353.801 99.8877 355.036 97.2211H368.517C367.826 99.9371 366.566 102.381 364.739 104.554C362.962 106.727 360.715 108.431 357.999 109.665C355.283 110.9 352.246 111.517 348.888 111.517C344.839 111.517 341.234 110.653 338.074 108.924C334.913 107.196 332.444 104.727 330.667 101.517C328.889 98.3075 328 94.5546 328 90.2584C328 85.9623 328.864 82.2094 330.592 78.9996C332.37 75.7899 334.839 73.3208 338 71.5925C341.16 69.8642 344.789 69 348.888 69C352.888 69 356.443 69.8395 359.554 71.5184C362.665 73.1974 365.085 75.5923 366.813 78.7033C368.591 81.8143 369.48 85.4438 369.48 89.5918ZM356.517 86.2586C356.517 84.0858 355.777 82.3575 354.295 81.0736C352.814 79.7897 350.962 79.1478 348.74 79.1478C346.617 79.1478 344.814 79.765 343.333 80.9995C341.901 82.234 341.012 83.9871 340.666 86.2586H356.517Z" fill="white"/>
<path d="M307.258 110.813L294.666 93.48V110.813H282V56H294.666V86.2951L307.184 69.4809H322.813L305.629 90.2209L322.961 110.813H307.258Z" fill="white"/>
<path d="M236 90.2584C236 85.9623 236.864 82.2094 238.592 78.9996C240.37 75.7899 242.815 73.3208 245.926 71.5925C249.086 69.8642 252.691 69 256.74 69C261.925 69 266.246 70.358 269.702 73.0739C273.208 75.7899 275.505 79.6169 276.591 84.5549H263.11C261.974 81.3946 259.777 79.8144 256.518 79.8144C254.197 79.8144 252.345 80.7279 250.962 82.555C249.58 84.3327 248.888 86.9005 248.888 90.2584C248.888 93.6163 249.58 96.2088 250.962 98.0359C252.345 99.8136 254.197 100.702 256.518 100.702C259.777 100.702 261.974 99.1223 263.11 95.9619H276.591C275.505 100.801 273.208 104.604 269.702 107.369C266.196 110.134 261.876 111.517 256.74 111.517C252.691 111.517 249.086 110.653 245.926 108.924C242.815 107.196 240.37 104.727 238.592 101.517C236.864 98.3075 236 94.5546 236 90.2584Z" fill="white"/>
<path d="M223.555 65.7032C221.333 65.7032 219.506 65.0612 218.074 63.7773C216.691 62.444 216 60.8145 216 58.8886C216 56.9134 216.691 55.2838 218.074 53.9999C219.506 52.6666 221.333 52 223.555 52C225.728 52 227.506 52.6666 228.888 53.9999C230.32 55.2838 231.036 56.9134 231.036 58.8886C231.036 60.8145 230.32 62.444 228.888 63.7773C227.506 65.0612 225.728 65.7032 223.555 65.7032ZM229.851 69.9993V111.331H217.185V69.9993H229.851Z" fill="white"/>
<path d="M210.788 59L217.5 70.5L197.01 69.1478V110.998H184.344V69.1478H170.567V59H210.788Z" fill="white"/>
<mask id="mask0_434_1463" style="mask-type:luminance" maskUnits="userSpaceOnUse" x="0" y="0" width="153" height="171">
<path d="M0 0H152.826V170.354H0V0Z" fill="white"/>
</mask>
<g mask="url(#mask0_434_1463)">
<path d="M65.894 166.478C64.1673 168.218 61.8479 169.176 59.3802 169.191C56.9125 169.198 54.6004 168.269 52.8515 166.544L40.9503 154.8C47.5827 147.567 47.4345 136.423 40.3575 129.44C33.2879 122.471 21.9943 122.317 14.6579 128.869L2.74929 117.118C0.970773 115.37 0 113.008 0 110.493C0 107.985 0.955951 105.666 2.69 103.919L86.7915 19.6122C88.5108 17.8791 90.8376 16.9212 93.3053 16.9138C95.773 16.9065 98.0851 17.8425 99.834 19.561L111.735 31.3123C105.103 38.5371 105.251 49.6888 112.328 56.6723C119.405 63.6265 130.699 63.7874 138.035 57.2426L149.944 68.9939C153.456 72.4601 153.486 78.6831 150.003 82.1931L65.894 166.478ZM72.3114 97.4691L76.9134 112.08L85.8726 99.5897L101.375 99.7871L92.1048 87.524L97.0847 73.0305L82.3971 77.9445L69.9623 68.7965L70.1624 84.0944L57.4979 92.928L72.3114 97.4691ZM12.1161 90.6172L11.4492 8.03639C11.427 6.04737 12.2125 4.16072 13.6353 2.74209C15.0655 1.32345 16.9626 0.541004 18.9856 0.533691L32.8062 0.541003C33.2064 8.53364 39.8535 14.9175 48.0718 14.9248C56.2752 14.9102 62.9224 8.53364 63.3299 0.533691H77.1579C81.2337 0.533691 84.9093 4.13147 84.9537 8.16801L85.0278 17.5281L57.7424 44.8771L54.4818 44.4091L48.8499 33.1477L43.2179 44.4091L30.6201 46.2153L39.735 54.9831L38.0602 64.6137L12.1161 90.6172Z" fill="white"/>
</g>
<mask id="mask1_434_1463" style="mask-type:luminance" maskUnits="userSpaceOnUse" x="586" y="46" width="16" height="9">
<path d="M586.156 46H602V54.2498H586.156V46Z" fill="white"/>
</mask>
<g mask="url(#mask1_434_1463)">
<path d="M586.307 53.5945C586.353 49.3987 589.78 45.9993 593.986 45.9993C596.071 45.9993 597.963 46.8353 599.349 48.1892L600.219 47.3184C600.275 47.2627 600.352 47.228 600.437 47.228C600.577 47.228 600.695 47.3221 600.732 47.4509L601.96 51.752C601.968 51.7787 601.972 51.8072 601.972 51.8369C601.972 52.0066 601.835 52.1441 601.665 52.1441C601.635 52.1441 601.607 52.1397 601.58 52.1323L597.28 50.9036C597.152 50.8671 597.057 50.7488 597.057 50.6082C597.057 50.5227 597.092 50.4465 597.147 50.3908L598.04 49.4971C596.989 48.4765 595.562 47.843 593.986 47.843C590.768 47.843 588.15 50.4614 588.15 53.68C588.15 53.8323 588.155 53.9834 588.167 54.1327L586.307 53.5945Z" fill="#FF9202"/>
</g>
<path d="M601.645 53.6565C601.599 57.9128 598.177 61.3606 593.976 61.3606C591.893 61.3606 590.004 60.5126 588.62 59.1395L587.75 60.0227C587.695 60.0792 587.618 60.1138 587.534 60.1138C587.393 60.1138 587.275 60.0189 587.239 59.8883L586.012 55.5259C586.004 55.4982 586 55.4693 586 55.4398C586 55.2677 586.137 55.1283 586.307 55.1283C586.336 55.1283 586.364 55.132 586.391 55.1402L590.686 56.3864C590.814 56.4235 590.908 56.5435 590.908 56.686C590.908 56.7721 590.874 56.85 590.819 56.9065L589.926 57.8129C590.976 58.8481 592.402 59.4907 593.976 59.4907C597.19 59.4907 599.805 56.8343 599.805 53.5705C599.805 53.416 599.799 53.2627 599.788 53.1113L601.645 53.6565H601.645Z" fill="#FF9202"/>
<path d="M593.339 56.525L590.551 53.9477L591.436 53.13L593.339 54.8895L596.494 51.9736L597.378 52.7913L593.339 56.525Z" fill="white"/>
</svg>
