<svg width="720" height="720" viewBox="0 0 720 720" fill="none" xmlns="http://www.w3.org/2000/svg">
<path d="M327.246 615.401C321.842 620.848 314.582 623.847 306.858 623.892C299.135 623.915 291.898 621.008 286.424 615.607L249.173 578.848C269.933 556.212 269.469 521.33 247.318 499.472C225.19 477.66 189.842 477.179 166.879 497.687L129.605 460.906C124.038 455.435 121 448.043 121 440.169C121 432.318 123.992 425.063 129.42 419.593L392.655 155.715C398.036 150.291 405.32 147.292 413.043 147.269C420.767 147.247 428.004 150.176 433.478 155.555L470.728 192.336C449.969 214.95 450.433 249.854 472.584 271.712C494.735 293.479 530.083 293.982 553.046 273.498L590.32 310.279C601.314 321.128 601.407 340.606 590.505 351.592L327.246 615.401ZM347.333 399.405L361.737 445.136L389.779 406.043L438.302 406.661L409.286 368.277L424.873 322.913L378.901 338.294L339.98 309.661L340.607 357.543L300.967 385.192L347.333 399.405ZM158.923 377.959L156.836 119.483C156.766 113.258 159.225 107.353 163.678 102.912C168.155 98.4719 174.092 96.0229 180.425 96L223.683 96.0229C224.935 121.04 245.741 141.021 271.463 141.044C297.14 140.998 317.945 121.04 319.221 96H362.502C375.259 96 386.764 107.261 386.903 119.895L387.135 149.192L301.732 234.794L291.527 233.329L273.899 198.081L256.271 233.329L216.84 238.982L245.37 266.425L240.128 296.569L158.923 377.959Z" fill="#002F6D"/>
</svg>
