<svg width="602" height="171" viewBox="0 0 602 171" fill="none" xmlns="http://www.w3.org/2000/svg">
<path d="M560.822 90.4409C560.822 86.1447 561.686 82.3918 563.414 79.182C565.192 75.9723 567.636 73.5033 570.747 71.7749C573.908 70.0466 577.512 69.1824 581.562 69.1824C586.747 69.1824 591.067 70.5404 594.524 73.2563C598.03 75.9723 600.326 79.7993 601.413 84.7374H587.932C586.796 81.577 584.599 79.9968 581.339 79.9968C579.019 79.9968 577.167 80.9104 575.784 82.7375C574.401 84.5152 573.71 87.083 573.71 90.4409C573.71 93.7987 574.401 96.3912 575.784 98.2183C577.167 99.996 579.019 100.885 581.339 100.885C584.599 100.885 591.364 96.1603 592.5 93L601.413 96.1443C600.326 100.984 598.03 104.786 594.524 107.551C591.018 110.317 586.697 111.699 581.562 111.699C577.512 111.699 573.908 110.835 570.747 109.107C567.636 107.378 565.192 104.909 563.414 101.7C561.686 98.4899 560.822 94.737 560.822 90.4409Z" fill="#FF9202"/>
<path d="M538.613 69.3306C543.452 69.3306 547.304 70.9108 550.168 74.0711C553.081 77.1821 554.538 81.4782 554.538 86.9595V111.107H541.946V88.6631C541.946 85.8978 541.23 83.7498 539.798 82.219C538.366 80.6881 536.44 79.9227 534.021 79.9227C531.601 79.9227 529.675 80.6881 528.243 82.219C526.811 83.7498 526.095 85.8978 526.095 88.6631V111.107H513.429V69.775H526.095V75.2563C527.379 73.4292 529.107 71.9971 531.28 70.9601C533.453 69.8738 535.897 69.3306 538.613 69.3306Z" fill="#FF9202"/>
<path d="M508.848 69.775L482.924 130.736H469.294L478.776 109.699L461.961 69.775H476.109L485.664 95.6259L495.145 69.775H508.848Z" fill="#FF9202"/>
<path d="M439.871 111.625C436.069 111.625 432.662 111.008 429.649 109.773C426.637 108.539 424.217 106.712 422.39 104.292C420.613 101.873 419.674 98.9591 419.576 95.5518H433.057C433.254 97.4777 433.921 98.9591 435.057 99.9961C436.192 100.984 437.674 101.478 439.501 101.478C441.377 101.478 442.859 101.058 443.945 100.218C445.031 99.3295 445.575 98.1196 445.575 96.5888C445.575 95.3049 445.13 94.2432 444.241 93.4038C443.402 92.5643 442.34 91.873 441.056 91.3298C439.822 90.7866 438.044 90.1693 435.723 89.478C432.365 88.441 429.625 87.404 427.501 86.367C425.378 85.33 423.551 83.7992 422.02 81.7746C420.489 79.75 419.724 77.1081 419.724 73.849C419.724 69.0097 421.477 65.232 424.983 62.5161C428.489 59.7508 433.057 58.3681 438.686 58.3681C444.414 58.3681 449.031 59.7508 452.537 62.5161C456.043 65.232 457.92 69.0343 458.167 73.923H444.464C444.365 72.2441 443.748 70.9355 442.612 69.9973C441.476 69.0097 440.019 68.5158 438.242 68.5158C436.711 68.5158 435.476 68.9356 434.538 69.7751C433.6 70.5652 433.131 71.7256 433.131 73.2564C433.131 74.9354 433.921 76.2439 435.501 77.1822C437.081 78.1204 439.55 79.1327 442.908 80.2191C446.266 81.3548 448.982 82.4412 451.056 83.4782C453.179 84.5152 455.006 86.0213 456.537 87.9966C458.068 89.9718 458.833 92.5149 458.833 95.6259C458.833 98.5887 458.068 101.28 456.537 103.7C455.056 106.119 452.883 108.045 450.019 109.477C447.155 110.909 443.772 111.625 439.871 111.625Z" fill="#FF9202"/>
<path d="M400.073 100.665V111.405H393.629C389.036 111.405 385.456 110.294 382.889 108.072C380.321 105.801 379.037 102.122 379.037 97.0356V80.5918H374V70.0737H379.037V60H391.703V70.0737H399.999V80.5918H391.703V97.1837C391.703 98.4182 391.999 99.3071 392.592 99.8503C393.184 100.393 394.172 100.665 395.555 100.665H400.073Z" fill="#002F6D"/>
<path d="M369.48 89.5918C369.48 90.7769 369.406 92.0114 369.258 93.2953H340.592C340.79 95.8631 341.604 97.8384 343.036 99.221C344.518 100.554 346.32 101.221 348.444 101.221C351.604 101.221 353.801 99.8877 355.036 97.2211H368.517C367.826 99.9371 366.566 102.381 364.739 104.554C362.962 106.727 360.715 108.431 357.999 109.665C355.283 110.9 352.246 111.517 348.888 111.517C344.839 111.517 341.234 110.653 338.074 108.924C334.913 107.196 332.444 104.727 330.667 101.517C328.889 98.3075 328 94.5546 328 90.2584C328 85.9623 328.864 82.2094 330.592 78.9996C332.37 75.7899 334.839 73.3208 338 71.5925C341.16 69.8642 344.789 69 348.888 69C352.888 69 356.443 69.8395 359.554 71.5184C362.665 73.1974 365.085 75.5923 366.813 78.7033C368.591 81.8143 369.48 85.4438 369.48 89.5918ZM356.517 86.2586C356.517 84.0858 355.777 82.3575 354.295 81.0736C352.814 79.7897 350.962 79.1478 348.74 79.1478C346.617 79.1478 344.814 79.765 343.333 80.9995C341.901 82.234 341.012 83.9871 340.666 86.2586H356.517Z" fill="#002F6D"/>
<path d="M307.258 110.813L294.666 93.48V110.813H282V56H294.666V86.2951L307.184 69.4809H322.813L305.629 90.2209L322.961 110.813H307.258Z" fill="#002F6D"/>
<path d="M236 90.2584C236 85.9623 236.864 82.2094 238.592 78.9996C240.37 75.7899 242.815 73.3208 245.926 71.5925C249.086 69.8642 252.691 69 256.74 69C261.925 69 266.246 70.358 269.702 73.0739C273.208 75.7899 275.505 79.6169 276.591 84.5549H263.11C261.974 81.3946 259.777 79.8144 256.518 79.8144C254.197 79.8144 252.345 80.7279 250.962 82.555C249.58 84.3327 248.888 86.9005 248.888 90.2584C248.888 93.6163 249.58 96.2088 250.962 98.0359C252.345 99.8136 254.197 100.702 256.518 100.702C259.777 100.702 261.974 99.1223 263.11 95.9619H276.591C275.505 100.801 273.208 104.604 269.702 107.369C266.196 110.134 261.876 111.517 256.74 111.517C252.691 111.517 249.086 110.653 245.926 108.924C242.815 107.196 240.37 104.727 238.592 101.517C236.864 98.3075 236 94.5546 236 90.2584Z" fill="#002F6D"/>
<path d="M223.555 65.7032C221.333 65.7032 219.506 65.0612 218.074 63.7773C216.691 62.444 216 60.8145 216 58.8886C216 56.9134 216.691 55.2838 218.074 53.9999C219.506 52.6666 221.333 52 223.555 52C225.728 52 227.506 52.6666 228.888 53.9999C230.32 55.2838 231.036 56.9134 231.036 58.8886C231.036 60.8145 230.32 62.444 228.888 63.7773C227.506 65.0612 225.728 65.7032 223.555 65.7032ZM229.851 69.9993V111.331H217.185V69.9993H229.851Z" fill="#002F6D"/>
<path d="M210.788 59L217.5 70.5L197.01 69.1478V110.998H184.344V69.1478H170.567V59H210.788Z" fill="#002F6D"/>
<mask id="mask0_410_3748" style="mask-type:luminance" maskUnits="userSpaceOnUse" x="0" y="0" width="153" height="171">
<path d="M0 0H152.826V170.354H0V0Z" fill="white"/>
</mask>
<g mask="url(#mask0_410_3748)">
<path d="M65.894 166.478C64.1673 168.218 61.8479 169.176 59.3802 169.191C56.9125 169.198 54.6004 168.269 52.8515 166.544L40.9503 154.8C47.5827 147.568 47.4345 136.423 40.3575 129.44C33.2879 122.471 21.9943 122.317 14.6579 128.869L2.74929 117.118C0.970773 115.37 0 113.008 0 110.493C0 107.985 0.955951 105.667 2.69 103.919L86.7915 19.6123C88.5107 17.8792 90.8376 16.9213 93.3053 16.914C95.773 16.9066 98.0851 17.8427 99.834 19.5611L111.735 31.3124C105.103 38.5372 105.251 49.6889 112.328 56.6724C119.405 63.6266 130.699 63.7875 138.035 57.2428L149.944 68.9941C153.456 72.4602 153.486 78.6832 150.003 82.1932L65.894 166.478ZM72.3114 97.4692L76.9134 112.08L85.8726 99.5898L101.375 99.7873L92.1048 87.5241L97.0847 73.0306L82.3971 77.9446L69.9623 68.7966L70.1624 84.0945L57.4979 92.9281L72.3114 97.4692ZM12.1161 90.6173L11.4492 8.03651C11.427 6.04749 12.2125 4.16085 13.6353 2.74221C15.0655 1.32357 16.9626 0.541126 18.9856 0.533813L32.8062 0.541126C33.2064 8.53376 39.8535 14.9176 48.0718 14.9249C56.2752 14.9103 62.9224 8.53376 63.3299 0.533813H77.1579C81.2337 0.533813 84.9093 4.1316 84.9537 8.16813L85.0278 17.5282L57.7424 44.8772L54.4818 44.4092L48.8499 33.1479L43.2179 44.4092L30.6201 46.2154L39.735 54.9832L38.0602 64.6138L12.1161 90.6173Z" fill="#002F6D"/>
</g>
<mask id="mask1_410_3748" style="mask-type:luminance" maskUnits="userSpaceOnUse" x="586" y="46" width="16" height="9">
<path d="M586.156 46H602V54.2498H586.156V46Z" fill="white"/>
</mask>
<g mask="url(#mask1_410_3748)">
<path d="M586.307 53.5946C586.353 49.3988 589.78 45.9994 593.986 45.9994C596.071 45.9994 597.963 46.8355 599.349 48.1893L600.219 47.3185C600.275 47.2628 600.352 47.2281 600.437 47.2281C600.577 47.2281 600.695 47.3222 600.732 47.4511L601.96 51.7522C601.968 51.7788 601.972 51.8073 601.972 51.837C601.972 52.0067 601.835 52.1442 601.665 52.1442C601.635 52.1442 601.607 52.1399 601.58 52.1324L597.28 50.9037C597.152 50.8672 597.057 50.7489 597.057 50.6083C597.057 50.5228 597.092 50.4467 597.147 50.3909L598.04 49.4973C596.989 48.4766 595.562 47.8431 593.986 47.8431C590.768 47.8431 588.15 50.4615 588.15 53.6801C588.15 53.8324 588.155 53.9835 588.167 54.1328L586.307 53.5946Z" fill="#FF9202"/>
</g>
<path d="M601.645 53.6567C601.599 57.9129 598.177 61.3608 593.976 61.3608C591.893 61.3608 590.004 60.5128 588.62 59.1397L587.75 60.0228C587.695 60.0794 587.618 60.1139 587.534 60.1139C587.393 60.1139 587.275 60.0191 587.239 59.8884L586.012 55.526C586.004 55.4984 586 55.4695 586 55.4399C586 55.2678 586.137 55.1284 586.307 55.1284C586.336 55.1284 586.364 55.1322 586.391 55.1403L590.686 56.3865C590.814 56.4236 590.908 56.5436 590.908 56.6862C590.908 56.7722 590.874 56.8501 590.819 56.9066L589.926 57.813C590.976 58.8482 592.402 59.4908 593.976 59.4908C597.19 59.4908 599.805 56.8344 599.805 53.5706C599.805 53.4161 599.799 53.2628 599.788 53.1115L601.645 53.6567H601.645Z" fill="#FF9202"/>
<path d="M593.339 56.525L590.551 53.9477L591.436 53.13L593.339 54.8895L596.494 51.9736L597.378 52.7913L593.339 56.525Z" fill="#002F6D"/>
</svg>
