<svg xmlns="http://www.w3.org/2000/svg" xmlns:xlink="http://www.w3.org/1999/xlink" width="84" zoomAndPan="magnify" viewBox="0 0 63 62.999997" height="84" preserveAspectRatio="xMidYMid meet" version="1.0"><defs><g/><clipPath id="be7aedecb7"><path d="M 0 0 L 62.675781 0 L 62.675781 62.675781 L 0 62.675781 Z M 0 0 " clip-rule="nonzero"/></clipPath><clipPath id="afa74fb32e"><path d="M 31.339844 0 C 14.03125 0 0 14.03125 0 31.339844 C 0 48.644531 14.03125 62.675781 31.339844 62.675781 C 48.644531 62.675781 62.675781 48.644531 62.675781 31.339844 C 62.675781 14.03125 48.644531 0 31.339844 0 Z M 31.339844 0 " clip-rule="nonzero"/></clipPath><clipPath id="d18d7b687b"><path d="M 19.84375 14.214844 L 43 14.214844 L 43 37.464844 L 19.84375 37.464844 Z M 19.84375 14.214844 " clip-rule="nonzero"/></clipPath></defs><g clip-path="url(#be7aedecb7)"><g clip-path="url(#afa74fb32e)"><path fill="#002f6d" d="M 0 0 L 62.675781 0 L 62.675781 62.675781 L 0 62.675781 Z M 0 0 " fill-opacity="1" fill-rule="nonzero"/></g></g><g clip-path="url(#d18d7b687b)"><path fill="#ffffff" d="M 42.058594 25.972656 C 42.058594 31.886719 37.25 36.699219 31.335938 36.699219 C 25.421875 36.699219 20.609375 31.886719 20.609375 25.972656 C 20.609375 20.058594 25.421875 15.25 31.335938 15.25 C 37.25 15.25 42.058594 20.058594 42.058594 25.972656 Z M 19.84375 25.972656 C 19.84375 32.308594 25 37.464844 31.335938 37.464844 C 37.671875 37.464844 42.824219 32.308594 42.824219 25.972656 C 42.824219 19.636719 37.671875 14.484375 31.335938 14.484375 C 25 14.484375 19.84375 19.636719 19.84375 25.972656 " fill-opacity="1" fill-rule="nonzero"/></g><path fill="#ffffff" d="M 24.558594 27.996094 C 24.40625 28.144531 24.402344 28.386719 24.546875 28.539062 C 24.695312 28.691406 24.9375 28.695312 25.089844 28.546875 L 31.28125 22.550781 C 31.3125 22.519531 31.355469 22.519531 31.386719 22.550781 L 37.578125 28.546875 C 37.730469 28.695312 37.972656 28.691406 38.121094 28.539062 C 38.191406 28.464844 38.230469 28.367188 38.230469 28.273438 C 38.230469 28.171875 38.191406 28.070312 38.113281 27.996094 L 31.921875 22 C 31.59375 21.679688 31.078125 21.679688 30.75 22 L 24.558594 27.996094 " fill-opacity="1" fill-rule="nonzero"/><g fill="#ffffff" fill-opacity="1"><g transform="translate(10.450896, 46.721548)"><g><path d="M 4.140625 -4.03125 L 2.71875 0 L 1.484375 0 L 0.046875 -4.03125 L 1.09375 -4.03125 L 2.09375 -0.984375 L 3.109375 -4.03125 Z M 4.140625 -4.03125 "/></g></g></g><g fill="#ffffff" fill-opacity="1"><g transform="translate(14.643527, 46.721548)"><g><path d="M 1.8125 0.046875 C 1.5 0.046875 1.21875 -0.0195312 0.96875 -0.15625 C 0.71875 -0.289062 0.519531 -0.484375 0.375 -0.734375 C 0.226562 -0.984375 0.15625 -1.273438 0.15625 -1.609375 C 0.15625 -1.929688 0.226562 -2.21875 0.375 -2.46875 C 0.519531 -2.726562 0.71875 -2.921875 0.96875 -3.046875 C 1.226562 -3.179688 1.515625 -3.25 1.828125 -3.25 C 2.140625 -3.25 2.421875 -3.179688 2.671875 -3.046875 C 2.929688 -2.921875 3.132812 -2.726562 3.28125 -2.46875 C 3.425781 -2.21875 3.5 -1.929688 3.5 -1.609375 C 3.5 -1.273438 3.421875 -0.984375 3.265625 -0.734375 C 3.117188 -0.484375 2.914062 -0.289062 2.65625 -0.15625 C 2.40625 -0.0195312 2.125 0.046875 1.8125 0.046875 Z M 1.8125 -0.8125 C 2 -0.8125 2.160156 -0.878906 2.296875 -1.015625 C 2.429688 -1.148438 2.5 -1.347656 2.5 -1.609375 C 2.5 -1.859375 2.429688 -2.050781 2.296875 -2.1875 C 2.171875 -2.332031 2.015625 -2.40625 1.828125 -2.40625 C 1.640625 -2.40625 1.476562 -2.335938 1.34375 -2.203125 C 1.21875 -2.066406 1.15625 -1.867188 1.15625 -1.609375 C 1.15625 -1.347656 1.21875 -1.148438 1.34375 -1.015625 C 1.46875 -0.878906 1.625 -0.8125 1.8125 -0.8125 Z M 1.8125 -0.8125 "/></g></g></g><g fill="#ffffff" fill-opacity="1"><g transform="translate(18.302027, 46.721548)"><g><path d="M 1.34375 -4.25 L 1.34375 0 L 0.359375 0 L 0.359375 -4.25 Z M 1.34375 -4.25 "/></g></g></g><g fill="#ffffff" fill-opacity="1"><g transform="translate(19.996308, 46.721548)"><g><path d="M 2.140625 -0.828125 L 2.140625 0 L 1.640625 0 C 1.285156 0 1.007812 -0.0820312 0.8125 -0.25 C 0.613281 -0.425781 0.515625 -0.710938 0.515625 -1.109375 L 0.515625 -2.390625 L 0.125 -2.390625 L 0.125 -3.203125 L 0.515625 -3.203125 L 0.515625 -3.984375 L 1.5 -3.984375 L 1.5 -3.203125 L 2.140625 -3.203125 L 2.140625 -2.390625 L 1.5 -2.390625 L 1.5 -1.109375 C 1.5 -1.003906 1.519531 -0.929688 1.5625 -0.890625 C 1.613281 -0.847656 1.691406 -0.828125 1.796875 -0.828125 Z M 2.140625 -0.828125 "/></g></g></g><g fill="#ffffff" fill-opacity="1"><g transform="translate(22.3281, 46.721548)"><g><path d="M 0.15625 -1.609375 C 0.15625 -1.941406 0.21875 -2.234375 0.34375 -2.484375 C 0.46875 -2.734375 0.632812 -2.921875 0.84375 -3.046875 C 1.0625 -3.179688 1.304688 -3.25 1.578125 -3.25 C 1.804688 -3.25 2.003906 -3.203125 2.171875 -3.109375 C 2.335938 -3.023438 2.46875 -2.90625 2.5625 -2.75 L 2.5625 -3.203125 L 3.546875 -3.203125 L 3.546875 0 L 2.5625 0 L 2.5625 -0.453125 C 2.46875 -0.304688 2.332031 -0.1875 2.15625 -0.09375 C 1.988281 0 1.789062 0.046875 1.5625 0.046875 C 1.300781 0.046875 1.0625 -0.0195312 0.84375 -0.15625 C 0.632812 -0.289062 0.46875 -0.484375 0.34375 -0.734375 C 0.21875 -0.984375 0.15625 -1.273438 0.15625 -1.609375 Z M 2.5625 -1.609375 C 2.5625 -1.847656 2.492188 -2.035156 2.359375 -2.171875 C 2.222656 -2.316406 2.054688 -2.390625 1.859375 -2.390625 C 1.660156 -2.390625 1.492188 -2.320312 1.359375 -2.1875 C 1.222656 -2.050781 1.15625 -1.859375 1.15625 -1.609375 C 1.15625 -1.359375 1.222656 -1.160156 1.359375 -1.015625 C 1.492188 -0.878906 1.660156 -0.8125 1.859375 -0.8125 C 2.054688 -0.8125 2.222656 -0.878906 2.359375 -1.015625 C 2.492188 -1.160156 2.5625 -1.359375 2.5625 -1.609375 Z M 2.5625 -1.609375 "/></g></g></g><g fill="#ffffff" fill-opacity="1"><g transform="translate(26.227819, 46.721548)"><g><path d="M 1.34375 -2.671875 C 1.457031 -2.847656 1.597656 -2.988281 1.765625 -3.09375 C 1.941406 -3.195312 2.132812 -3.25 2.34375 -3.25 L 2.34375 -2.203125 L 2.078125 -2.203125 C 1.828125 -2.203125 1.640625 -2.148438 1.515625 -2.046875 C 1.398438 -1.941406 1.34375 -1.753906 1.34375 -1.484375 L 1.34375 0 L 0.359375 0 L 0.359375 -3.203125 L 1.34375 -3.203125 Z M 1.34375 -2.671875 "/></g></g></g><g fill="#ffffff" fill-opacity="1"><g transform="translate(28.685964, 46.721548)"><g/></g></g><g fill="#ffffff" fill-opacity="1"><g transform="translate(29.90355, 46.721548)"><g><path d="M 0.15625 -1.609375 C 0.15625 -1.941406 0.21875 -2.234375 0.34375 -2.484375 C 0.46875 -2.734375 0.632812 -2.921875 0.84375 -3.046875 C 1.0625 -3.179688 1.304688 -3.25 1.578125 -3.25 C 1.804688 -3.25 2.003906 -3.203125 2.171875 -3.109375 C 2.335938 -3.023438 2.46875 -2.90625 2.5625 -2.75 L 2.5625 -3.203125 L 3.546875 -3.203125 L 3.546875 0 L 2.5625 0 L 2.5625 -0.453125 C 2.46875 -0.304688 2.332031 -0.1875 2.15625 -0.09375 C 1.988281 0 1.789062 0.046875 1.5625 0.046875 C 1.300781 0.046875 1.0625 -0.0195312 0.84375 -0.15625 C 0.632812 -0.289062 0.46875 -0.484375 0.34375 -0.734375 C 0.21875 -0.984375 0.15625 -1.273438 0.15625 -1.609375 Z M 2.5625 -1.609375 C 2.5625 -1.847656 2.492188 -2.035156 2.359375 -2.171875 C 2.222656 -2.316406 2.054688 -2.390625 1.859375 -2.390625 C 1.660156 -2.390625 1.492188 -2.320312 1.359375 -2.1875 C 1.222656 -2.050781 1.15625 -1.859375 1.15625 -1.609375 C 1.15625 -1.359375 1.222656 -1.160156 1.359375 -1.015625 C 1.492188 -0.878906 1.660156 -0.8125 1.859375 -0.8125 C 2.054688 -0.8125 2.222656 -0.878906 2.359375 -1.015625 C 2.492188 -1.160156 2.5625 -1.359375 2.5625 -1.609375 Z M 2.5625 -1.609375 "/></g></g></g><g fill="#ffffff" fill-opacity="1"><g transform="translate(33.803269, 46.721548)"><g><path d="M 1.8125 0.046875 C 1.5 0.046875 1.21875 -0.0195312 0.96875 -0.15625 C 0.71875 -0.289062 0.519531 -0.484375 0.375 -0.734375 C 0.226562 -0.984375 0.15625 -1.273438 0.15625 -1.609375 C 0.15625 -1.929688 0.226562 -2.21875 0.375 -2.46875 C 0.519531 -2.726562 0.71875 -2.921875 0.96875 -3.046875 C 1.226562 -3.179688 1.515625 -3.25 1.828125 -3.25 C 2.140625 -3.25 2.421875 -3.179688 2.671875 -3.046875 C 2.929688 -2.921875 3.132812 -2.726562 3.28125 -2.46875 C 3.425781 -2.21875 3.5 -1.929688 3.5 -1.609375 C 3.5 -1.273438 3.421875 -0.984375 3.265625 -0.734375 C 3.117188 -0.484375 2.914062 -0.289062 2.65625 -0.15625 C 2.40625 -0.0195312 2.125 0.046875 1.8125 0.046875 Z M 1.8125 -0.8125 C 2 -0.8125 2.160156 -0.878906 2.296875 -1.015625 C 2.429688 -1.148438 2.5 -1.347656 2.5 -1.609375 C 2.5 -1.859375 2.429688 -2.050781 2.296875 -2.1875 C 2.171875 -2.332031 2.015625 -2.40625 1.828125 -2.40625 C 1.640625 -2.40625 1.476562 -2.335938 1.34375 -2.203125 C 1.21875 -2.066406 1.15625 -1.867188 1.15625 -1.609375 C 1.15625 -1.347656 1.21875 -1.148438 1.34375 -1.015625 C 1.46875 -0.878906 1.625 -0.8125 1.8125 -0.8125 Z M 1.8125 -0.8125 "/></g></g></g><g fill="#ffffff" fill-opacity="1"><g transform="translate(37.461769, 46.721548)"><g/></g></g><g fill="#ffffff" fill-opacity="1"><g transform="translate(38.679356, 46.721548)"><g><path d="M 2.140625 -0.828125 L 2.140625 0 L 1.640625 0 C 1.285156 0 1.007812 -0.0820312 0.8125 -0.25 C 0.613281 -0.425781 0.515625 -0.710938 0.515625 -1.109375 L 0.515625 -2.390625 L 0.125 -2.390625 L 0.125 -3.203125 L 0.515625 -3.203125 L 0.515625 -3.984375 L 1.5 -3.984375 L 1.5 -3.203125 L 2.140625 -3.203125 L 2.140625 -2.390625 L 1.5 -2.390625 L 1.5 -1.109375 C 1.5 -1.003906 1.519531 -0.929688 1.5625 -0.890625 C 1.613281 -0.847656 1.691406 -0.828125 1.796875 -0.828125 Z M 2.140625 -0.828125 "/></g></g></g><g fill="#ffffff" fill-opacity="1"><g transform="translate(41.011148, 46.721548)"><g><path d="M 1.8125 0.046875 C 1.5 0.046875 1.21875 -0.0195312 0.96875 -0.15625 C 0.71875 -0.289062 0.519531 -0.484375 0.375 -0.734375 C 0.226562 -0.984375 0.15625 -1.273438 0.15625 -1.609375 C 0.15625 -1.929688 0.226562 -2.21875 0.375 -2.46875 C 0.519531 -2.726562 0.71875 -2.921875 0.96875 -3.046875 C 1.226562 -3.179688 1.515625 -3.25 1.828125 -3.25 C 2.140625 -3.25 2.421875 -3.179688 2.671875 -3.046875 C 2.929688 -2.921875 3.132812 -2.726562 3.28125 -2.46875 C 3.425781 -2.21875 3.5 -1.929688 3.5 -1.609375 C 3.5 -1.273438 3.421875 -0.984375 3.265625 -0.734375 C 3.117188 -0.484375 2.914062 -0.289062 2.65625 -0.15625 C 2.40625 -0.0195312 2.125 0.046875 1.8125 0.046875 Z M 1.8125 -0.8125 C 2 -0.8125 2.160156 -0.878906 2.296875 -1.015625 C 2.429688 -1.148438 2.5 -1.347656 2.5 -1.609375 C 2.5 -1.859375 2.429688 -2.050781 2.296875 -2.1875 C 2.171875 -2.332031 2.015625 -2.40625 1.828125 -2.40625 C 1.640625 -2.40625 1.476562 -2.335938 1.34375 -2.203125 C 1.21875 -2.066406 1.15625 -1.867188 1.15625 -1.609375 C 1.15625 -1.347656 1.21875 -1.148438 1.34375 -1.015625 C 1.46875 -0.878906 1.625 -0.8125 1.8125 -0.8125 Z M 1.8125 -0.8125 "/></g></g></g><g fill="#ffffff" fill-opacity="1"><g transform="translate(44.669649, 46.721548)"><g><path d="M 1.34375 -2.75 C 1.4375 -2.90625 1.566406 -3.023438 1.734375 -3.109375 C 1.898438 -3.203125 2.097656 -3.25 2.328125 -3.25 C 2.585938 -3.25 2.828125 -3.179688 3.046875 -3.046875 C 3.265625 -2.921875 3.4375 -2.734375 3.5625 -2.484375 C 3.6875 -2.234375 3.75 -1.941406 3.75 -1.609375 C 3.75 -1.273438 3.6875 -0.984375 3.5625 -0.734375 C 3.4375 -0.484375 3.265625 -0.289062 3.046875 -0.15625 C 2.828125 -0.0195312 2.585938 0.046875 2.328125 0.046875 C 2.109375 0.046875 1.910156 0 1.734375 -0.09375 C 1.566406 -0.1875 1.4375 -0.304688 1.34375 -0.453125 L 1.34375 1.53125 L 0.359375 1.53125 L 0.359375 -3.203125 L 1.34375 -3.203125 Z M 2.75 -1.609375 C 2.75 -1.859375 2.675781 -2.050781 2.53125 -2.1875 C 2.394531 -2.320312 2.226562 -2.390625 2.03125 -2.390625 C 1.84375 -2.390625 1.675781 -2.316406 1.53125 -2.171875 C 1.394531 -2.035156 1.328125 -1.847656 1.328125 -1.609375 C 1.328125 -1.359375 1.394531 -1.160156 1.53125 -1.015625 C 1.675781 -0.878906 1.84375 -0.8125 2.03125 -0.8125 C 2.226562 -0.8125 2.394531 -0.878906 2.53125 -1.015625 C 2.675781 -1.160156 2.75 -1.359375 2.75 -1.609375 Z M 2.75 -1.609375 "/></g></g></g><g fill="#ffffff" fill-opacity="1"><g transform="translate(48.569367, 46.721548)"><g><path d="M 1.8125 0.046875 C 1.5 0.046875 1.21875 -0.0195312 0.96875 -0.15625 C 0.71875 -0.289062 0.519531 -0.484375 0.375 -0.734375 C 0.226562 -0.984375 0.15625 -1.273438 0.15625 -1.609375 C 0.15625 -1.929688 0.226562 -2.21875 0.375 -2.46875 C 0.519531 -2.726562 0.71875 -2.921875 0.96875 -3.046875 C 1.226562 -3.179688 1.515625 -3.25 1.828125 -3.25 C 2.140625 -3.25 2.421875 -3.179688 2.671875 -3.046875 C 2.929688 -2.921875 3.132812 -2.726562 3.28125 -2.46875 C 3.425781 -2.21875 3.5 -1.929688 3.5 -1.609375 C 3.5 -1.273438 3.421875 -0.984375 3.265625 -0.734375 C 3.117188 -0.484375 2.914062 -0.289062 2.65625 -0.15625 C 2.40625 -0.0195312 2.125 0.046875 1.8125 0.046875 Z M 1.8125 -0.8125 C 2 -0.8125 2.160156 -0.878906 2.296875 -1.015625 C 2.429688 -1.148438 2.5 -1.347656 2.5 -1.609375 C 2.5 -1.859375 2.429688 -2.050781 2.296875 -2.1875 C 2.171875 -2.332031 2.015625 -2.40625 1.828125 -2.40625 C 1.640625 -2.40625 1.476562 -2.335938 1.34375 -2.203125 C 1.21875 -2.066406 1.15625 -1.867188 1.15625 -1.609375 C 1.15625 -1.347656 1.21875 -1.148438 1.34375 -1.015625 C 1.46875 -0.878906 1.625 -0.8125 1.8125 -0.8125 Z M 1.8125 -0.8125 "/></g></g></g></svg>